M48
;GenerationSoftware,Autodesk,EAGLE,9.4.2*%
;CreationDate,2019-07-14T08:14:54Z*%
FMAT,2
ICI,OFF
METRIC,TZ,000.000
T5C0.086
T4C0.800
T3C0.813
T2C1.016
T1C1.194
%
G90
M71
T1
X81240Y35560
X76240Y35560
X81280Y62190
X81280Y57190
X42672Y33060
X42672Y38060
T2
X45720Y45720
X45720Y60960
X45720Y58420
X45720Y55880
X45720Y53340
X45720Y50800
X45720Y48260
X45720Y43180
X83820Y52070
X81280Y52070
X78740Y52070
X76200Y52070
X73660Y52070
X71120Y52070
X70866Y33020
X70866Y35560
X70866Y38100
X70866Y40640
X70866Y43180
X70866Y45720
T3
X76200Y68199
X73660Y68199
X71120Y68199
X78740Y68199
X81280Y68199
X83820Y68199
T4
X66040Y33020
X66040Y35560
X66040Y38100
X66040Y40640
X66040Y43180
X66040Y45720
X66040Y48260
X66040Y50800
X66040Y53340
X66040Y55880
X66040Y58420
X66040Y60960
X50800Y33020
X50800Y35560
X50800Y38100
X50800Y53340
X50800Y55880
X50800Y58420
X50800Y60960
X50800Y68580
X66040Y68580
X66040Y66040
X66040Y63500
X50800Y66040
X50800Y63500
X50800Y40640
X55880Y34290
X58420Y34290
X60960Y34290
X50800Y50800
X50800Y48260
X50800Y45720
X50800Y43180
X55880Y31750
X58420Y31750
X60960Y31750
T5
X40640Y44450
X78740Y45720
X58420Y68072
X40513Y68072
M30