G04 EAGLE Gerber RS-274X export*
G75*
%MOMM*%
%FSLAX34Y34*%
%LPD*%
%INBottom Copper*%
%IPPOS*%
%AMOC8*
5,1,8,0,0,1.08239X$1,22.5*%
G01*
%ADD10C,1.320800*%
%ADD11C,1.524000*%
%ADD12C,1.790700*%
%ADD13C,1.308000*%
%ADD14C,1.308000*%
%ADD15C,0.317500*%

G36*
X555456Y308626D02*
X555456Y308626D01*
X555552Y308636D01*
X555576Y308646D01*
X555602Y308650D01*
X555688Y308696D01*
X555777Y308736D01*
X555796Y308753D01*
X555820Y308766D01*
X555887Y308836D01*
X555958Y308902D01*
X555971Y308925D01*
X555989Y308944D01*
X556030Y309032D01*
X556077Y309118D01*
X556082Y309143D01*
X556093Y309167D01*
X556103Y309264D01*
X556121Y309360D01*
X556117Y309386D01*
X556120Y309411D01*
X556099Y309507D01*
X556085Y309603D01*
X556073Y309626D01*
X556067Y309652D01*
X556018Y309735D01*
X555973Y309822D01*
X555955Y309841D01*
X555941Y309863D01*
X555867Y309926D01*
X555798Y309994D01*
X555769Y310010D01*
X555754Y310023D01*
X555724Y310035D01*
X555651Y310075D01*
X554232Y310663D01*
X551963Y312932D01*
X550735Y315896D01*
X550735Y319104D01*
X551963Y322068D01*
X554232Y324337D01*
X557196Y325565D01*
X560404Y325565D01*
X563368Y324337D01*
X565637Y322068D01*
X566865Y319104D01*
X566865Y315896D01*
X565637Y312932D01*
X563368Y310663D01*
X561949Y310075D01*
X561866Y310024D01*
X561780Y309978D01*
X561762Y309960D01*
X561740Y309946D01*
X561678Y309870D01*
X561611Y309800D01*
X561600Y309776D01*
X561583Y309756D01*
X561548Y309665D01*
X561507Y309577D01*
X561505Y309551D01*
X561495Y309527D01*
X561491Y309429D01*
X561480Y309333D01*
X561486Y309307D01*
X561485Y309281D01*
X561512Y309187D01*
X561533Y309092D01*
X561546Y309070D01*
X561553Y309045D01*
X561609Y308965D01*
X561659Y308881D01*
X561679Y308864D01*
X561694Y308843D01*
X561772Y308784D01*
X561846Y308721D01*
X561870Y308711D01*
X561891Y308696D01*
X561983Y308666D01*
X562074Y308629D01*
X562106Y308626D01*
X562125Y308620D01*
X562158Y308620D01*
X562241Y308611D01*
X580759Y308611D01*
X580856Y308626D01*
X580952Y308636D01*
X580976Y308646D01*
X581002Y308650D01*
X581088Y308696D01*
X581177Y308736D01*
X581196Y308753D01*
X581220Y308766D01*
X581287Y308836D01*
X581358Y308902D01*
X581371Y308925D01*
X581389Y308944D01*
X581430Y309032D01*
X581477Y309118D01*
X581482Y309143D01*
X581493Y309167D01*
X581503Y309264D01*
X581521Y309360D01*
X581517Y309386D01*
X581520Y309411D01*
X581499Y309507D01*
X581485Y309603D01*
X581473Y309626D01*
X581467Y309652D01*
X581418Y309735D01*
X581373Y309822D01*
X581355Y309841D01*
X581341Y309863D01*
X581267Y309926D01*
X581198Y309994D01*
X581169Y310010D01*
X581154Y310023D01*
X581124Y310035D01*
X581051Y310075D01*
X579632Y310663D01*
X577363Y312932D01*
X576135Y315896D01*
X576135Y319104D01*
X577363Y322068D01*
X579632Y324337D01*
X582596Y325565D01*
X585804Y325565D01*
X588768Y324337D01*
X591037Y322068D01*
X592265Y319104D01*
X592265Y315896D01*
X591037Y312932D01*
X588768Y310663D01*
X587349Y310075D01*
X587266Y310024D01*
X587180Y309978D01*
X587162Y309960D01*
X587140Y309946D01*
X587078Y309870D01*
X587011Y309800D01*
X587000Y309776D01*
X586983Y309756D01*
X586948Y309665D01*
X586907Y309577D01*
X586905Y309551D01*
X586895Y309527D01*
X586891Y309429D01*
X586880Y309333D01*
X586886Y309307D01*
X586885Y309281D01*
X586912Y309187D01*
X586933Y309092D01*
X586946Y309070D01*
X586953Y309045D01*
X587009Y308965D01*
X587059Y308881D01*
X587079Y308864D01*
X587094Y308843D01*
X587172Y308784D01*
X587246Y308721D01*
X587270Y308711D01*
X587291Y308696D01*
X587383Y308666D01*
X587474Y308629D01*
X587506Y308626D01*
X587525Y308620D01*
X587558Y308620D01*
X587641Y308611D01*
X606159Y308611D01*
X606256Y308626D01*
X606352Y308636D01*
X606376Y308646D01*
X606402Y308650D01*
X606488Y308696D01*
X606577Y308736D01*
X606596Y308753D01*
X606620Y308766D01*
X606687Y308836D01*
X606758Y308902D01*
X606771Y308925D01*
X606789Y308944D01*
X606830Y309032D01*
X606877Y309118D01*
X606882Y309143D01*
X606893Y309167D01*
X606903Y309264D01*
X606921Y309360D01*
X606917Y309386D01*
X606920Y309411D01*
X606899Y309507D01*
X606885Y309603D01*
X606873Y309626D01*
X606867Y309652D01*
X606818Y309735D01*
X606773Y309822D01*
X606755Y309841D01*
X606741Y309863D01*
X606667Y309926D01*
X606598Y309994D01*
X606569Y310010D01*
X606554Y310023D01*
X606524Y310035D01*
X606451Y310075D01*
X605032Y310663D01*
X602763Y312932D01*
X601535Y315896D01*
X601535Y319104D01*
X602763Y322068D01*
X605032Y324337D01*
X607996Y325565D01*
X611204Y325565D01*
X614168Y324337D01*
X616437Y322068D01*
X617665Y319104D01*
X617665Y315896D01*
X616437Y312932D01*
X614168Y310663D01*
X612749Y310075D01*
X612666Y310024D01*
X612580Y309978D01*
X612562Y309960D01*
X612540Y309946D01*
X612478Y309870D01*
X612411Y309800D01*
X612400Y309776D01*
X612383Y309756D01*
X612348Y309665D01*
X612307Y309577D01*
X612305Y309551D01*
X612295Y309527D01*
X612291Y309429D01*
X612280Y309333D01*
X612286Y309307D01*
X612285Y309281D01*
X612312Y309187D01*
X612333Y309092D01*
X612346Y309070D01*
X612353Y309045D01*
X612409Y308965D01*
X612459Y308881D01*
X612479Y308864D01*
X612494Y308843D01*
X612572Y308784D01*
X612646Y308721D01*
X612670Y308711D01*
X612691Y308696D01*
X612783Y308666D01*
X612874Y308629D01*
X612906Y308626D01*
X612925Y308620D01*
X612958Y308620D01*
X613041Y308611D01*
X851208Y308611D01*
X851228Y308614D01*
X851247Y308612D01*
X851349Y308634D01*
X851451Y308650D01*
X851468Y308660D01*
X851488Y308664D01*
X851577Y308717D01*
X851668Y308766D01*
X851682Y308780D01*
X851699Y308790D01*
X851766Y308869D01*
X851838Y308944D01*
X851846Y308962D01*
X851859Y308977D01*
X851898Y309073D01*
X851941Y309167D01*
X851943Y309187D01*
X851951Y309205D01*
X851969Y309372D01*
X851969Y700788D01*
X851966Y700808D01*
X851968Y700827D01*
X851946Y700929D01*
X851930Y701031D01*
X851920Y701048D01*
X851916Y701068D01*
X851863Y701157D01*
X851814Y701248D01*
X851800Y701262D01*
X851790Y701279D01*
X851711Y701346D01*
X851636Y701418D01*
X851618Y701426D01*
X851603Y701439D01*
X851507Y701478D01*
X851413Y701521D01*
X851393Y701523D01*
X851375Y701531D01*
X851208Y701549D01*
X383032Y701549D01*
X383012Y701546D01*
X382993Y701548D01*
X382891Y701526D01*
X382789Y701510D01*
X382772Y701500D01*
X382752Y701496D01*
X382663Y701443D01*
X382572Y701394D01*
X382558Y701380D01*
X382541Y701370D01*
X382474Y701291D01*
X382402Y701216D01*
X382394Y701198D01*
X382381Y701183D01*
X382342Y701087D01*
X382299Y700993D01*
X382297Y700973D01*
X382289Y700955D01*
X382271Y700788D01*
X382271Y309372D01*
X382274Y309352D01*
X382272Y309333D01*
X382294Y309231D01*
X382310Y309129D01*
X382320Y309112D01*
X382324Y309092D01*
X382377Y309003D01*
X382426Y308912D01*
X382440Y308898D01*
X382450Y308881D01*
X382529Y308814D01*
X382604Y308742D01*
X382622Y308734D01*
X382637Y308721D01*
X382733Y308682D01*
X382827Y308639D01*
X382847Y308637D01*
X382865Y308629D01*
X383032Y308611D01*
X555359Y308611D01*
X555456Y308626D01*
G37*
%LPC*%
G36*
X652256Y626935D02*
X652256Y626935D01*
X649292Y628163D01*
X647023Y630432D01*
X645795Y633396D01*
X645795Y636604D01*
X647023Y639568D01*
X649292Y641837D01*
X652256Y643065D01*
X668544Y643065D01*
X671508Y641837D01*
X673777Y639568D01*
X674185Y638582D01*
X674247Y638482D01*
X674307Y638383D01*
X674312Y638379D01*
X674315Y638373D01*
X674406Y638298D01*
X674494Y638223D01*
X674500Y638220D01*
X674504Y638216D01*
X674613Y638175D01*
X674722Y638131D01*
X674730Y638130D01*
X674734Y638128D01*
X674752Y638127D01*
X674889Y638112D01*
X785796Y638112D01*
X785886Y638127D01*
X785977Y638134D01*
X786006Y638147D01*
X786038Y638152D01*
X786119Y638195D01*
X786203Y638230D01*
X786235Y638256D01*
X786256Y638267D01*
X786278Y638290D01*
X786334Y638335D01*
X809465Y661466D01*
X809518Y661540D01*
X809577Y661610D01*
X809590Y661640D01*
X809608Y661666D01*
X809635Y661753D01*
X809669Y661838D01*
X809674Y661879D01*
X809681Y661901D01*
X809680Y661933D01*
X809688Y662004D01*
X809688Y667368D01*
X809669Y667483D01*
X809652Y667599D01*
X809649Y667605D01*
X809648Y667611D01*
X809594Y667713D01*
X809540Y667818D01*
X809536Y667823D01*
X809533Y667828D01*
X809448Y667908D01*
X809365Y667990D01*
X809358Y667994D01*
X809355Y667998D01*
X809338Y668005D01*
X809218Y668071D01*
X808195Y668495D01*
X805909Y670781D01*
X804671Y673769D01*
X804671Y690211D01*
X805909Y693199D01*
X808195Y695485D01*
X811183Y696723D01*
X814417Y696723D01*
X817405Y695485D01*
X819691Y693199D01*
X820929Y690211D01*
X820929Y673769D01*
X819691Y670781D01*
X817405Y668495D01*
X816382Y668071D01*
X816283Y668010D01*
X816183Y667950D01*
X816178Y667945D01*
X816173Y667942D01*
X816099Y667852D01*
X816023Y667763D01*
X816020Y667757D01*
X816016Y667752D01*
X815975Y667644D01*
X815931Y667535D01*
X815930Y667527D01*
X815928Y667523D01*
X815927Y667504D01*
X815912Y667368D01*
X815912Y659111D01*
X788689Y631888D01*
X674889Y631888D01*
X674774Y631869D01*
X674658Y631852D01*
X674652Y631849D01*
X674646Y631848D01*
X674543Y631794D01*
X674439Y631740D01*
X674434Y631736D01*
X674429Y631733D01*
X674349Y631649D01*
X674266Y631565D01*
X674263Y631558D01*
X674259Y631555D01*
X674251Y631538D01*
X674185Y631418D01*
X673777Y630432D01*
X671508Y628163D01*
X668544Y626935D01*
X652256Y626935D01*
G37*
%LPD*%
%LPC*%
G36*
X801762Y611422D02*
X801762Y611422D01*
X797911Y613017D01*
X794963Y615965D01*
X793368Y619816D01*
X793368Y623984D01*
X794963Y627835D01*
X797911Y630783D01*
X801762Y632378D01*
X823838Y632378D01*
X827689Y630783D01*
X830637Y627835D01*
X832232Y623984D01*
X832232Y619816D01*
X830637Y615965D01*
X827689Y613017D01*
X823838Y611422D01*
X801762Y611422D01*
G37*
%LPD*%
%LPC*%
G36*
X801762Y561422D02*
X801762Y561422D01*
X797911Y563017D01*
X794963Y565965D01*
X793368Y569816D01*
X793368Y573984D01*
X794963Y577835D01*
X797911Y580783D01*
X801762Y582378D01*
X823838Y582378D01*
X827689Y580783D01*
X830637Y577835D01*
X832232Y573984D01*
X832232Y569816D01*
X830637Y565965D01*
X827689Y563017D01*
X823838Y561422D01*
X801762Y561422D01*
G37*
%LPD*%
%LPC*%
G36*
X415682Y370122D02*
X415682Y370122D01*
X411831Y371717D01*
X408883Y374665D01*
X407288Y378516D01*
X407288Y382684D01*
X408883Y386535D01*
X411831Y389483D01*
X415682Y391078D01*
X437758Y391078D01*
X441609Y389483D01*
X444557Y386535D01*
X446152Y382684D01*
X446152Y378516D01*
X444557Y374665D01*
X441609Y371717D01*
X437758Y370122D01*
X415682Y370122D01*
G37*
%LPD*%
%LPC*%
G36*
X810316Y336168D02*
X810316Y336168D01*
X806465Y337763D01*
X803517Y340711D01*
X801922Y344562D01*
X801922Y366638D01*
X803517Y370489D01*
X806465Y373437D01*
X810316Y375032D01*
X814484Y375032D01*
X818335Y373437D01*
X821283Y370489D01*
X822878Y366638D01*
X822878Y344562D01*
X821283Y340711D01*
X818335Y337763D01*
X814484Y336168D01*
X810316Y336168D01*
G37*
%LPD*%
%LPC*%
G36*
X760316Y336168D02*
X760316Y336168D01*
X756465Y337763D01*
X753517Y340711D01*
X751922Y344562D01*
X751922Y366638D01*
X753517Y370489D01*
X756465Y373437D01*
X760316Y375032D01*
X764484Y375032D01*
X768335Y373437D01*
X771283Y370489D01*
X772878Y366638D01*
X772878Y344562D01*
X771283Y340711D01*
X768335Y337763D01*
X764484Y336168D01*
X760316Y336168D01*
G37*
%LPD*%
%LPC*%
G36*
X699221Y448055D02*
X699221Y448055D01*
X695860Y449447D01*
X693287Y452020D01*
X691895Y455381D01*
X691895Y459019D01*
X693287Y462380D01*
X695860Y464953D01*
X699221Y466345D01*
X718099Y466345D01*
X721460Y464953D01*
X724033Y462380D01*
X725425Y459019D01*
X725425Y455381D01*
X724033Y452020D01*
X721460Y449447D01*
X718099Y448055D01*
X699221Y448055D01*
G37*
%LPD*%
%LPC*%
G36*
X699221Y346455D02*
X699221Y346455D01*
X695860Y347847D01*
X693287Y350420D01*
X691895Y353781D01*
X691895Y357419D01*
X693287Y360780D01*
X695860Y363353D01*
X699221Y364745D01*
X718099Y364745D01*
X721460Y363353D01*
X724033Y360780D01*
X725425Y357419D01*
X725425Y353781D01*
X724033Y350420D01*
X721460Y347847D01*
X718099Y346455D01*
X699221Y346455D01*
G37*
%LPD*%
%LPC*%
G36*
X447761Y549655D02*
X447761Y549655D01*
X444400Y551047D01*
X441827Y553620D01*
X440435Y556981D01*
X440435Y560619D01*
X441827Y563980D01*
X444400Y566553D01*
X447761Y567945D01*
X466639Y567945D01*
X470000Y566553D01*
X472573Y563980D01*
X473965Y560619D01*
X473965Y556981D01*
X472573Y553620D01*
X470000Y551047D01*
X466639Y549655D01*
X447761Y549655D01*
G37*
%LPD*%
%LPC*%
G36*
X699221Y321055D02*
X699221Y321055D01*
X695860Y322447D01*
X693287Y325020D01*
X691895Y328381D01*
X691895Y332019D01*
X693287Y335380D01*
X695860Y337953D01*
X699221Y339345D01*
X718099Y339345D01*
X721460Y337953D01*
X724033Y335380D01*
X725425Y332019D01*
X725425Y328381D01*
X724033Y325020D01*
X721460Y322447D01*
X718099Y321055D01*
X699221Y321055D01*
G37*
%LPD*%
%LPC*%
G36*
X699221Y397255D02*
X699221Y397255D01*
X695860Y398647D01*
X693287Y401220D01*
X691895Y404581D01*
X691895Y408219D01*
X693287Y411580D01*
X695860Y414153D01*
X699221Y415545D01*
X718099Y415545D01*
X721460Y414153D01*
X724033Y411580D01*
X725425Y408219D01*
X725425Y404581D01*
X724033Y401220D01*
X721460Y398647D01*
X718099Y397255D01*
X699221Y397255D01*
G37*
%LPD*%
%LPC*%
G36*
X447761Y422655D02*
X447761Y422655D01*
X444400Y424047D01*
X441827Y426620D01*
X440435Y429981D01*
X440435Y433619D01*
X441827Y436980D01*
X444400Y439553D01*
X447761Y440945D01*
X466639Y440945D01*
X470000Y439553D01*
X472573Y436980D01*
X473965Y433619D01*
X473965Y429981D01*
X472573Y426620D01*
X470000Y424047D01*
X466639Y422655D01*
X447761Y422655D01*
G37*
%LPD*%
%LPC*%
G36*
X699221Y422655D02*
X699221Y422655D01*
X695860Y424047D01*
X693287Y426620D01*
X691895Y429981D01*
X691895Y433619D01*
X693287Y436980D01*
X695860Y439553D01*
X699221Y440945D01*
X718099Y440945D01*
X721460Y439553D01*
X724033Y436980D01*
X725425Y433619D01*
X725425Y429981D01*
X724033Y426620D01*
X721460Y424047D01*
X718099Y422655D01*
X699221Y422655D01*
G37*
%LPD*%
%LPC*%
G36*
X709381Y503935D02*
X709381Y503935D01*
X706020Y505327D01*
X703447Y507900D01*
X702055Y511261D01*
X702055Y530139D01*
X703447Y533500D01*
X706020Y536073D01*
X709381Y537465D01*
X713019Y537465D01*
X716380Y536073D01*
X718953Y533500D01*
X720345Y530139D01*
X720345Y511261D01*
X718953Y507900D01*
X716380Y505327D01*
X713019Y503935D01*
X709381Y503935D01*
G37*
%LPD*%
%LPC*%
G36*
X447761Y473455D02*
X447761Y473455D01*
X444400Y474847D01*
X441827Y477420D01*
X440435Y480781D01*
X440435Y484419D01*
X441827Y487780D01*
X444400Y490353D01*
X447761Y491745D01*
X466639Y491745D01*
X470000Y490353D01*
X472573Y487780D01*
X473965Y484419D01*
X473965Y480781D01*
X472573Y477420D01*
X470000Y474847D01*
X466639Y473455D01*
X447761Y473455D01*
G37*
%LPD*%
%LPC*%
G36*
X447761Y498855D02*
X447761Y498855D01*
X444400Y500247D01*
X441827Y502820D01*
X440435Y506181D01*
X440435Y509819D01*
X441827Y513180D01*
X444400Y515753D01*
X447761Y517145D01*
X466639Y517145D01*
X470000Y515753D01*
X472573Y513180D01*
X473965Y509819D01*
X473965Y506181D01*
X472573Y502820D01*
X470000Y500247D01*
X466639Y498855D01*
X447761Y498855D01*
G37*
%LPD*%
%LPC*%
G36*
X734781Y503935D02*
X734781Y503935D01*
X731420Y505327D01*
X728847Y507900D01*
X727455Y511261D01*
X727455Y530139D01*
X728847Y533500D01*
X731420Y536073D01*
X734781Y537465D01*
X738419Y537465D01*
X741780Y536073D01*
X744353Y533500D01*
X745745Y530139D01*
X745745Y511261D01*
X744353Y507900D01*
X741780Y505327D01*
X738419Y503935D01*
X734781Y503935D01*
G37*
%LPD*%
%LPC*%
G36*
X447761Y524255D02*
X447761Y524255D01*
X444400Y525647D01*
X441827Y528220D01*
X440435Y531581D01*
X440435Y535219D01*
X441827Y538580D01*
X444400Y541153D01*
X447761Y542545D01*
X466639Y542545D01*
X470000Y541153D01*
X472573Y538580D01*
X473965Y535219D01*
X473965Y531581D01*
X472573Y528220D01*
X470000Y525647D01*
X466639Y524255D01*
X447761Y524255D01*
G37*
%LPD*%
%LPC*%
G36*
X447761Y600455D02*
X447761Y600455D01*
X444400Y601847D01*
X441827Y604420D01*
X440435Y607781D01*
X440435Y611419D01*
X441827Y614780D01*
X444400Y617353D01*
X447761Y618745D01*
X466639Y618745D01*
X470000Y617353D01*
X472573Y614780D01*
X473965Y611419D01*
X473965Y607781D01*
X472573Y604420D01*
X470000Y601847D01*
X466639Y600455D01*
X447761Y600455D01*
G37*
%LPD*%
%LPC*%
G36*
X836381Y503935D02*
X836381Y503935D01*
X833020Y505327D01*
X830447Y507900D01*
X829055Y511261D01*
X829055Y530139D01*
X830447Y533500D01*
X833020Y536073D01*
X836381Y537465D01*
X840019Y537465D01*
X843380Y536073D01*
X845953Y533500D01*
X847345Y530139D01*
X847345Y511261D01*
X845953Y507900D01*
X843380Y505327D01*
X840019Y503935D01*
X836381Y503935D01*
G37*
%LPD*%
%LPC*%
G36*
X760181Y503935D02*
X760181Y503935D01*
X756820Y505327D01*
X754247Y507900D01*
X752855Y511261D01*
X752855Y530139D01*
X754247Y533500D01*
X756820Y536073D01*
X760181Y537465D01*
X763819Y537465D01*
X767180Y536073D01*
X769753Y533500D01*
X771145Y530139D01*
X771145Y511261D01*
X769753Y507900D01*
X767180Y505327D01*
X763819Y503935D01*
X760181Y503935D01*
G37*
%LPD*%
%LPC*%
G36*
X447761Y575055D02*
X447761Y575055D01*
X444400Y576447D01*
X441827Y579020D01*
X440435Y582381D01*
X440435Y586019D01*
X441827Y589380D01*
X444400Y591953D01*
X447761Y593345D01*
X466639Y593345D01*
X470000Y591953D01*
X472573Y589380D01*
X473965Y586019D01*
X473965Y582381D01*
X472573Y579020D01*
X470000Y576447D01*
X466639Y575055D01*
X447761Y575055D01*
G37*
%LPD*%
%LPC*%
G36*
X810981Y503935D02*
X810981Y503935D01*
X807620Y505327D01*
X805047Y507900D01*
X803655Y511261D01*
X803655Y530139D01*
X805047Y533500D01*
X807620Y536073D01*
X810981Y537465D01*
X814619Y537465D01*
X817980Y536073D01*
X820553Y533500D01*
X821945Y530139D01*
X821945Y511261D01*
X820553Y507900D01*
X817980Y505327D01*
X814619Y503935D01*
X810981Y503935D01*
G37*
%LPD*%
%LPC*%
G36*
X836583Y667257D02*
X836583Y667257D01*
X833595Y668495D01*
X831309Y670781D01*
X830071Y673769D01*
X830071Y690211D01*
X831309Y693199D01*
X833595Y695485D01*
X836583Y696723D01*
X839817Y696723D01*
X842805Y695485D01*
X845091Y693199D01*
X846329Y690211D01*
X846329Y673769D01*
X845091Y670781D01*
X842805Y668495D01*
X839817Y667257D01*
X836583Y667257D01*
G37*
%LPD*%
%LPC*%
G36*
X760383Y667257D02*
X760383Y667257D01*
X757395Y668495D01*
X755109Y670781D01*
X753871Y673769D01*
X753871Y690211D01*
X755109Y693199D01*
X757395Y695485D01*
X760383Y696723D01*
X763617Y696723D01*
X766605Y695485D01*
X768891Y693199D01*
X770129Y690211D01*
X770129Y673769D01*
X768891Y670781D01*
X766605Y668495D01*
X763617Y667257D01*
X760383Y667257D01*
G37*
%LPD*%
%LPC*%
G36*
X709583Y667257D02*
X709583Y667257D01*
X706595Y668495D01*
X704309Y670781D01*
X703071Y673769D01*
X703071Y690211D01*
X704309Y693199D01*
X706595Y695485D01*
X709583Y696723D01*
X712817Y696723D01*
X715805Y695485D01*
X718091Y693199D01*
X719329Y690211D01*
X719329Y673769D01*
X718091Y670781D01*
X715805Y668495D01*
X712817Y667257D01*
X709583Y667257D01*
G37*
%LPD*%
%LPC*%
G36*
X734983Y667257D02*
X734983Y667257D01*
X731995Y668495D01*
X729709Y670781D01*
X728471Y673769D01*
X728471Y690211D01*
X729709Y693199D01*
X731995Y695485D01*
X734983Y696723D01*
X738217Y696723D01*
X741205Y695485D01*
X743491Y693199D01*
X744729Y690211D01*
X744729Y673769D01*
X743491Y670781D01*
X741205Y668495D01*
X738217Y667257D01*
X734983Y667257D01*
G37*
%LPD*%
%LPC*%
G36*
X499856Y550735D02*
X499856Y550735D01*
X496892Y551963D01*
X494623Y554232D01*
X493395Y557196D01*
X493395Y560404D01*
X494623Y563368D01*
X496892Y565637D01*
X499856Y566865D01*
X516144Y566865D01*
X519108Y565637D01*
X521377Y563368D01*
X522605Y560404D01*
X522605Y557196D01*
X521377Y554232D01*
X519108Y551963D01*
X516144Y550735D01*
X499856Y550735D01*
G37*
%LPD*%
%LPC*%
G36*
X652256Y550735D02*
X652256Y550735D01*
X649292Y551963D01*
X647023Y554232D01*
X645795Y557196D01*
X645795Y560404D01*
X647023Y563368D01*
X649292Y565637D01*
X652256Y566865D01*
X668544Y566865D01*
X671508Y565637D01*
X673777Y563368D01*
X675005Y560404D01*
X675005Y557196D01*
X673777Y554232D01*
X671508Y551963D01*
X668544Y550735D01*
X652256Y550735D01*
G37*
%LPD*%
%LPC*%
G36*
X652256Y525335D02*
X652256Y525335D01*
X649292Y526563D01*
X647023Y528832D01*
X645795Y531796D01*
X645795Y535004D01*
X647023Y537968D01*
X649292Y540237D01*
X652256Y541465D01*
X668544Y541465D01*
X671508Y540237D01*
X673777Y537968D01*
X675005Y535004D01*
X675005Y531796D01*
X673777Y528832D01*
X671508Y526563D01*
X668544Y525335D01*
X652256Y525335D01*
G37*
%LPD*%
%LPC*%
G36*
X499856Y525335D02*
X499856Y525335D01*
X496892Y526563D01*
X494623Y528832D01*
X493395Y531796D01*
X493395Y535004D01*
X494623Y537968D01*
X496892Y540237D01*
X499856Y541465D01*
X516144Y541465D01*
X519108Y540237D01*
X521377Y537968D01*
X522605Y535004D01*
X522605Y531796D01*
X521377Y528832D01*
X519108Y526563D01*
X516144Y525335D01*
X499856Y525335D01*
G37*
%LPD*%
%LPC*%
G36*
X499856Y322135D02*
X499856Y322135D01*
X496892Y323363D01*
X494623Y325632D01*
X493395Y328596D01*
X493395Y331804D01*
X494623Y334768D01*
X496892Y337037D01*
X499856Y338265D01*
X516144Y338265D01*
X519108Y337037D01*
X521377Y334768D01*
X522605Y331804D01*
X522605Y328596D01*
X521377Y325632D01*
X519108Y323363D01*
X516144Y322135D01*
X499856Y322135D01*
G37*
%LPD*%
%LPC*%
G36*
X652256Y322135D02*
X652256Y322135D01*
X649292Y323363D01*
X647023Y325632D01*
X645795Y328596D01*
X645795Y331804D01*
X647023Y334768D01*
X649292Y337037D01*
X652256Y338265D01*
X668544Y338265D01*
X671508Y337037D01*
X673777Y334768D01*
X675005Y331804D01*
X675005Y328596D01*
X673777Y325632D01*
X671508Y323363D01*
X668544Y322135D01*
X652256Y322135D01*
G37*
%LPD*%
%LPC*%
G36*
X499856Y576135D02*
X499856Y576135D01*
X496892Y577363D01*
X494623Y579632D01*
X493395Y582596D01*
X493395Y585804D01*
X494623Y588768D01*
X496892Y591037D01*
X499856Y592265D01*
X516144Y592265D01*
X519108Y591037D01*
X521377Y588768D01*
X522605Y585804D01*
X522605Y582596D01*
X521377Y579632D01*
X519108Y577363D01*
X516144Y576135D01*
X499856Y576135D01*
G37*
%LPD*%
%LPC*%
G36*
X652256Y576135D02*
X652256Y576135D01*
X649292Y577363D01*
X647023Y579632D01*
X645795Y582596D01*
X645795Y585804D01*
X647023Y588768D01*
X649292Y591037D01*
X652256Y592265D01*
X668544Y592265D01*
X671508Y591037D01*
X673777Y588768D01*
X675005Y585804D01*
X675005Y582596D01*
X673777Y579632D01*
X671508Y577363D01*
X668544Y576135D01*
X652256Y576135D01*
G37*
%LPD*%
%LPC*%
G36*
X499856Y601535D02*
X499856Y601535D01*
X496892Y602763D01*
X494623Y605032D01*
X493395Y607996D01*
X493395Y611204D01*
X494623Y614168D01*
X496892Y616437D01*
X499856Y617665D01*
X516144Y617665D01*
X519108Y616437D01*
X521377Y614168D01*
X522605Y611204D01*
X522605Y607996D01*
X521377Y605032D01*
X519108Y602763D01*
X516144Y601535D01*
X499856Y601535D01*
G37*
%LPD*%
%LPC*%
G36*
X652256Y601535D02*
X652256Y601535D01*
X649292Y602763D01*
X647023Y605032D01*
X645795Y607996D01*
X645795Y611204D01*
X647023Y614168D01*
X649292Y616437D01*
X652256Y617665D01*
X668544Y617665D01*
X671508Y616437D01*
X673777Y614168D01*
X675005Y611204D01*
X675005Y607996D01*
X673777Y605032D01*
X671508Y602763D01*
X668544Y601535D01*
X652256Y601535D01*
G37*
%LPD*%
%LPC*%
G36*
X499856Y626935D02*
X499856Y626935D01*
X496892Y628163D01*
X494623Y630432D01*
X493395Y633396D01*
X493395Y636604D01*
X494623Y639568D01*
X496892Y641837D01*
X499856Y643065D01*
X516144Y643065D01*
X519108Y641837D01*
X521377Y639568D01*
X522605Y636604D01*
X522605Y633396D01*
X521377Y630432D01*
X519108Y628163D01*
X516144Y626935D01*
X499856Y626935D01*
G37*
%LPD*%
%LPC*%
G36*
X652256Y347535D02*
X652256Y347535D01*
X649292Y348763D01*
X647023Y351032D01*
X645795Y353996D01*
X645795Y357204D01*
X647023Y360168D01*
X649292Y362437D01*
X652256Y363665D01*
X668544Y363665D01*
X671508Y362437D01*
X673777Y360168D01*
X675005Y357204D01*
X675005Y353996D01*
X673777Y351032D01*
X671508Y348763D01*
X668544Y347535D01*
X652256Y347535D01*
G37*
%LPD*%
%LPC*%
G36*
X652256Y677735D02*
X652256Y677735D01*
X649292Y678963D01*
X647023Y681232D01*
X645795Y684196D01*
X645795Y687404D01*
X647023Y690368D01*
X649292Y692637D01*
X652256Y693865D01*
X668544Y693865D01*
X671508Y692637D01*
X673777Y690368D01*
X675005Y687404D01*
X675005Y684196D01*
X673777Y681232D01*
X671508Y678963D01*
X668544Y677735D01*
X652256Y677735D01*
G37*
%LPD*%
%LPC*%
G36*
X499856Y677735D02*
X499856Y677735D01*
X496892Y678963D01*
X494623Y681232D01*
X493395Y684196D01*
X493395Y687404D01*
X494623Y690368D01*
X496892Y692637D01*
X499856Y693865D01*
X516144Y693865D01*
X519108Y692637D01*
X521377Y690368D01*
X522605Y687404D01*
X522605Y684196D01*
X521377Y681232D01*
X519108Y678963D01*
X516144Y677735D01*
X499856Y677735D01*
G37*
%LPD*%
%LPC*%
G36*
X499856Y652335D02*
X499856Y652335D01*
X496892Y653563D01*
X494623Y655832D01*
X493395Y658796D01*
X493395Y662004D01*
X494623Y664968D01*
X496892Y667237D01*
X499856Y668465D01*
X516144Y668465D01*
X519108Y667237D01*
X521377Y664968D01*
X522605Y662004D01*
X522605Y658796D01*
X521377Y655832D01*
X519108Y653563D01*
X516144Y652335D01*
X499856Y652335D01*
G37*
%LPD*%
%LPC*%
G36*
X652256Y499935D02*
X652256Y499935D01*
X649292Y501163D01*
X647023Y503432D01*
X645795Y506396D01*
X645795Y509604D01*
X647023Y512568D01*
X649292Y514837D01*
X652256Y516065D01*
X668544Y516065D01*
X671508Y514837D01*
X673777Y512568D01*
X675005Y509604D01*
X675005Y506396D01*
X673777Y503432D01*
X671508Y501163D01*
X668544Y499935D01*
X652256Y499935D01*
G37*
%LPD*%
%LPC*%
G36*
X499856Y499935D02*
X499856Y499935D01*
X496892Y501163D01*
X494623Y503432D01*
X493395Y506396D01*
X493395Y509604D01*
X494623Y512568D01*
X496892Y514837D01*
X499856Y516065D01*
X516144Y516065D01*
X519108Y514837D01*
X521377Y512568D01*
X522605Y509604D01*
X522605Y506396D01*
X521377Y503432D01*
X519108Y501163D01*
X516144Y499935D01*
X499856Y499935D01*
G37*
%LPD*%
%LPC*%
G36*
X652256Y652335D02*
X652256Y652335D01*
X649292Y653563D01*
X647023Y655832D01*
X645795Y658796D01*
X645795Y662004D01*
X647023Y664968D01*
X649292Y667237D01*
X652256Y668465D01*
X668544Y668465D01*
X671508Y667237D01*
X673777Y664968D01*
X675005Y662004D01*
X675005Y658796D01*
X673777Y655832D01*
X671508Y653563D01*
X668544Y652335D01*
X652256Y652335D01*
G37*
%LPD*%
%LPC*%
G36*
X652256Y474535D02*
X652256Y474535D01*
X649292Y475763D01*
X647023Y478032D01*
X645795Y480996D01*
X645795Y484204D01*
X647023Y487168D01*
X649292Y489437D01*
X652256Y490665D01*
X668544Y490665D01*
X671508Y489437D01*
X673777Y487168D01*
X675005Y484204D01*
X675005Y480996D01*
X673777Y478032D01*
X671508Y475763D01*
X668544Y474535D01*
X652256Y474535D01*
G37*
%LPD*%
%LPC*%
G36*
X499856Y474535D02*
X499856Y474535D01*
X496892Y475763D01*
X494623Y478032D01*
X493395Y480996D01*
X493395Y484204D01*
X494623Y487168D01*
X496892Y489437D01*
X499856Y490665D01*
X516144Y490665D01*
X519108Y489437D01*
X521377Y487168D01*
X522605Y484204D01*
X522605Y480996D01*
X521377Y478032D01*
X519108Y475763D01*
X516144Y474535D01*
X499856Y474535D01*
G37*
%LPD*%
%LPC*%
G36*
X499856Y372935D02*
X499856Y372935D01*
X496892Y374163D01*
X494623Y376432D01*
X493395Y379396D01*
X493395Y382604D01*
X494623Y385568D01*
X496892Y387837D01*
X499856Y389065D01*
X516144Y389065D01*
X519108Y387837D01*
X521377Y385568D01*
X522605Y382604D01*
X522605Y379396D01*
X521377Y376432D01*
X519108Y374163D01*
X516144Y372935D01*
X499856Y372935D01*
G37*
%LPD*%
%LPC*%
G36*
X652256Y372935D02*
X652256Y372935D01*
X649292Y374163D01*
X647023Y376432D01*
X645795Y379396D01*
X645795Y382604D01*
X647023Y385568D01*
X649292Y387837D01*
X652256Y389065D01*
X668544Y389065D01*
X671508Y387837D01*
X673777Y385568D01*
X675005Y382604D01*
X675005Y379396D01*
X673777Y376432D01*
X671508Y374163D01*
X668544Y372935D01*
X652256Y372935D01*
G37*
%LPD*%
%LPC*%
G36*
X499856Y398335D02*
X499856Y398335D01*
X496892Y399563D01*
X494623Y401832D01*
X493395Y404796D01*
X493395Y408004D01*
X494623Y410968D01*
X496892Y413237D01*
X499856Y414465D01*
X516144Y414465D01*
X519108Y413237D01*
X521377Y410968D01*
X522605Y408004D01*
X522605Y404796D01*
X521377Y401832D01*
X519108Y399563D01*
X516144Y398335D01*
X499856Y398335D01*
G37*
%LPD*%
%LPC*%
G36*
X652256Y398335D02*
X652256Y398335D01*
X649292Y399563D01*
X647023Y401832D01*
X645795Y404796D01*
X645795Y408004D01*
X647023Y410968D01*
X649292Y413237D01*
X652256Y414465D01*
X668544Y414465D01*
X671508Y413237D01*
X673777Y410968D01*
X675005Y408004D01*
X675005Y404796D01*
X673777Y401832D01*
X671508Y399563D01*
X668544Y398335D01*
X652256Y398335D01*
G37*
%LPD*%
%LPC*%
G36*
X652256Y449135D02*
X652256Y449135D01*
X649292Y450363D01*
X647023Y452632D01*
X645795Y455596D01*
X645795Y458804D01*
X647023Y461768D01*
X649292Y464037D01*
X652256Y465265D01*
X668544Y465265D01*
X671508Y464037D01*
X673777Y461768D01*
X675005Y458804D01*
X675005Y455596D01*
X673777Y452632D01*
X671508Y450363D01*
X668544Y449135D01*
X652256Y449135D01*
G37*
%LPD*%
%LPC*%
G36*
X499856Y449135D02*
X499856Y449135D01*
X496892Y450363D01*
X494623Y452632D01*
X493395Y455596D01*
X493395Y458804D01*
X494623Y461768D01*
X496892Y464037D01*
X499856Y465265D01*
X516144Y465265D01*
X519108Y464037D01*
X521377Y461768D01*
X522605Y458804D01*
X522605Y455596D01*
X521377Y452632D01*
X519108Y450363D01*
X516144Y449135D01*
X499856Y449135D01*
G37*
%LPD*%
%LPC*%
G36*
X499856Y423735D02*
X499856Y423735D01*
X496892Y424963D01*
X494623Y427232D01*
X493395Y430196D01*
X493395Y433404D01*
X494623Y436368D01*
X496892Y438637D01*
X499856Y439865D01*
X516144Y439865D01*
X519108Y438637D01*
X521377Y436368D01*
X522605Y433404D01*
X522605Y430196D01*
X521377Y427232D01*
X519108Y424963D01*
X516144Y423735D01*
X499856Y423735D01*
G37*
%LPD*%
%LPC*%
G36*
X652256Y423735D02*
X652256Y423735D01*
X649292Y424963D01*
X647023Y427232D01*
X645795Y430196D01*
X645795Y433404D01*
X647023Y436368D01*
X649292Y438637D01*
X652256Y439865D01*
X668544Y439865D01*
X671508Y438637D01*
X673777Y436368D01*
X675005Y433404D01*
X675005Y430196D01*
X673777Y427232D01*
X671508Y424963D01*
X668544Y423735D01*
X652256Y423735D01*
G37*
%LPD*%
%LPC*%
G36*
X582093Y670127D02*
X582093Y670127D01*
X578200Y671740D01*
X575220Y674720D01*
X573607Y678613D01*
X573607Y682827D01*
X575220Y686720D01*
X578200Y689700D01*
X582093Y691313D01*
X586307Y691313D01*
X590200Y689700D01*
X593180Y686720D01*
X594793Y682827D01*
X594793Y678613D01*
X593180Y674720D01*
X590200Y671740D01*
X586307Y670127D01*
X582093Y670127D01*
G37*
%LPD*%
%LPC*%
G36*
X404293Y433907D02*
X404293Y433907D01*
X400400Y435520D01*
X397420Y438500D01*
X395807Y442393D01*
X395807Y446607D01*
X397420Y450500D01*
X400400Y453480D01*
X404293Y455093D01*
X408507Y455093D01*
X412400Y453480D01*
X415380Y450500D01*
X416993Y446607D01*
X416993Y442393D01*
X415380Y438500D01*
X412400Y435520D01*
X408507Y433907D01*
X404293Y433907D01*
G37*
%LPD*%
%LPC*%
G36*
X785293Y446607D02*
X785293Y446607D01*
X781400Y448220D01*
X778420Y451200D01*
X776807Y455093D01*
X776807Y459307D01*
X778420Y463200D01*
X781400Y466180D01*
X785293Y467793D01*
X789507Y467793D01*
X793400Y466180D01*
X796380Y463200D01*
X797993Y459307D01*
X797993Y455093D01*
X796380Y451200D01*
X793400Y448220D01*
X789507Y446607D01*
X785293Y446607D01*
G37*
%LPD*%
%LPC*%
G36*
X403023Y670127D02*
X403023Y670127D01*
X399130Y671740D01*
X396150Y674720D01*
X394537Y678613D01*
X394537Y682827D01*
X396150Y686720D01*
X399130Y689700D01*
X403023Y691313D01*
X407237Y691313D01*
X411130Y689700D01*
X414110Y686720D01*
X415723Y682827D01*
X415723Y678613D01*
X414110Y674720D01*
X411130Y671740D01*
X407237Y670127D01*
X403023Y670127D01*
G37*
%LPD*%
%LPC*%
G36*
X557196Y334835D02*
X557196Y334835D01*
X554232Y336063D01*
X551963Y338332D01*
X550735Y341296D01*
X550735Y344504D01*
X551963Y347468D01*
X554232Y349737D01*
X557196Y350965D01*
X560404Y350965D01*
X563368Y349737D01*
X565637Y347468D01*
X566865Y344504D01*
X566865Y341296D01*
X565637Y338332D01*
X563368Y336063D01*
X560404Y334835D01*
X557196Y334835D01*
G37*
%LPD*%
%LPC*%
G36*
X607996Y334835D02*
X607996Y334835D01*
X605032Y336063D01*
X602763Y338332D01*
X601535Y341296D01*
X601535Y344504D01*
X602763Y347468D01*
X605032Y349737D01*
X607996Y350965D01*
X611204Y350965D01*
X614168Y349737D01*
X616437Y347468D01*
X617665Y344504D01*
X617665Y341296D01*
X616437Y338332D01*
X614168Y336063D01*
X611204Y334835D01*
X607996Y334835D01*
G37*
%LPD*%
%LPC*%
G36*
X582596Y334835D02*
X582596Y334835D01*
X579632Y336063D01*
X577363Y338332D01*
X576135Y341296D01*
X576135Y344504D01*
X577363Y347468D01*
X579632Y349737D01*
X582596Y350965D01*
X585804Y350965D01*
X588768Y349737D01*
X591037Y347468D01*
X592265Y344504D01*
X592265Y341296D01*
X591037Y338332D01*
X588768Y336063D01*
X585804Y334835D01*
X582596Y334835D01*
G37*
%LPD*%
%LPC*%
G36*
X428243Y332123D02*
X428243Y332123D01*
X428243Y342094D01*
X436578Y342094D01*
X438365Y341811D01*
X440086Y341252D01*
X441698Y340431D01*
X443162Y339367D01*
X444441Y338088D01*
X445504Y336624D01*
X446326Y335012D01*
X446885Y333292D01*
X447070Y332123D01*
X428243Y332123D01*
G37*
%LPD*%
%LPC*%
G36*
X406370Y332123D02*
X406370Y332123D01*
X406555Y333292D01*
X407114Y335012D01*
X407936Y336624D01*
X408999Y338088D01*
X410278Y339367D01*
X411742Y340431D01*
X413354Y341252D01*
X415075Y341811D01*
X416862Y342094D01*
X425197Y342094D01*
X425197Y332123D01*
X406370Y332123D01*
G37*
%LPD*%
%LPC*%
G36*
X428243Y319106D02*
X428243Y319106D01*
X428243Y329077D01*
X447070Y329077D01*
X446885Y327908D01*
X446326Y326188D01*
X445504Y324576D01*
X444441Y323112D01*
X443162Y321833D01*
X441698Y320769D01*
X440086Y319948D01*
X438365Y319389D01*
X436578Y319106D01*
X428243Y319106D01*
G37*
%LPD*%
%LPC*%
G36*
X416862Y319106D02*
X416862Y319106D01*
X415075Y319389D01*
X413354Y319948D01*
X411742Y320769D01*
X410278Y321833D01*
X408999Y323112D01*
X407936Y324576D01*
X407114Y326188D01*
X406555Y327908D01*
X406370Y329077D01*
X425197Y329077D01*
X425197Y319106D01*
X416862Y319106D01*
G37*
%LPD*%
%LPC*%
G36*
X788923Y522223D02*
X788923Y522223D01*
X788923Y538366D01*
X789779Y538231D01*
X791300Y537736D01*
X792725Y537010D01*
X794019Y536070D01*
X795150Y534939D01*
X796090Y533645D01*
X796816Y532220D01*
X797311Y530699D01*
X797561Y529120D01*
X797561Y522223D01*
X788923Y522223D01*
G37*
%LPD*%
%LPC*%
G36*
X710183Y382523D02*
X710183Y382523D01*
X710183Y391161D01*
X717080Y391161D01*
X718659Y390911D01*
X720180Y390416D01*
X721605Y389690D01*
X722899Y388750D01*
X724030Y387619D01*
X724970Y386325D01*
X725696Y384900D01*
X726191Y383379D01*
X726326Y382523D01*
X710183Y382523D01*
G37*
%LPD*%
%LPC*%
G36*
X458723Y458723D02*
X458723Y458723D01*
X458723Y467361D01*
X465620Y467361D01*
X467199Y467111D01*
X468720Y466616D01*
X470145Y465890D01*
X471439Y464950D01*
X472570Y463819D01*
X473510Y462525D01*
X474236Y461100D01*
X474731Y459579D01*
X474866Y458723D01*
X458723Y458723D01*
G37*
%LPD*%
%LPC*%
G36*
X690994Y382523D02*
X690994Y382523D01*
X691129Y383379D01*
X691624Y384900D01*
X692350Y386325D01*
X693290Y387619D01*
X694421Y388750D01*
X695715Y389690D01*
X697140Y390416D01*
X698661Y390911D01*
X700240Y391161D01*
X707137Y391161D01*
X707137Y382523D01*
X690994Y382523D01*
G37*
%LPD*%
%LPC*%
G36*
X439534Y458723D02*
X439534Y458723D01*
X439669Y459579D01*
X440164Y461100D01*
X440890Y462525D01*
X441830Y463819D01*
X442961Y464950D01*
X444255Y465890D01*
X445680Y466616D01*
X447201Y467111D01*
X448780Y467361D01*
X455677Y467361D01*
X455677Y458723D01*
X439534Y458723D01*
G37*
%LPD*%
%LPC*%
G36*
X788923Y519177D02*
X788923Y519177D01*
X797561Y519177D01*
X797561Y512280D01*
X797311Y510701D01*
X796816Y509180D01*
X796090Y507755D01*
X795150Y506461D01*
X794019Y505330D01*
X792725Y504390D01*
X791300Y503664D01*
X789779Y503169D01*
X788923Y503034D01*
X788923Y519177D01*
G37*
%LPD*%
%LPC*%
G36*
X777239Y522223D02*
X777239Y522223D01*
X777239Y529120D01*
X777489Y530699D01*
X777984Y532220D01*
X778710Y533645D01*
X779650Y534939D01*
X780781Y536070D01*
X782075Y537010D01*
X783500Y537736D01*
X785021Y538231D01*
X785877Y538366D01*
X785877Y522223D01*
X777239Y522223D01*
G37*
%LPD*%
%LPC*%
G36*
X458723Y447039D02*
X458723Y447039D01*
X458723Y455677D01*
X474866Y455677D01*
X474731Y454821D01*
X474236Y453300D01*
X473510Y451875D01*
X472570Y450581D01*
X471439Y449450D01*
X470145Y448510D01*
X468720Y447784D01*
X467199Y447289D01*
X465620Y447039D01*
X458723Y447039D01*
G37*
%LPD*%
%LPC*%
G36*
X710183Y370839D02*
X710183Y370839D01*
X710183Y379477D01*
X726326Y379477D01*
X726191Y378621D01*
X725696Y377100D01*
X724970Y375675D01*
X724030Y374381D01*
X722899Y373250D01*
X721605Y372310D01*
X720180Y371584D01*
X718659Y371089D01*
X717080Y370839D01*
X710183Y370839D01*
G37*
%LPD*%
%LPC*%
G36*
X448780Y447039D02*
X448780Y447039D01*
X447201Y447289D01*
X445680Y447784D01*
X444255Y448510D01*
X442961Y449450D01*
X441830Y450581D01*
X440890Y451875D01*
X440164Y453300D01*
X439669Y454821D01*
X439534Y455677D01*
X455677Y455677D01*
X455677Y447039D01*
X448780Y447039D01*
G37*
%LPD*%
%LPC*%
G36*
X700240Y370839D02*
X700240Y370839D01*
X698661Y371089D01*
X697140Y371584D01*
X695715Y372310D01*
X694421Y373250D01*
X693290Y374381D01*
X692350Y375675D01*
X691624Y377100D01*
X691129Y378621D01*
X690994Y379477D01*
X707137Y379477D01*
X707137Y370839D01*
X700240Y370839D01*
G37*
%LPD*%
%LPC*%
G36*
X785021Y503169D02*
X785021Y503169D01*
X783500Y503664D01*
X782075Y504390D01*
X780781Y505330D01*
X779650Y506461D01*
X778710Y507755D01*
X777984Y509180D01*
X777489Y510701D01*
X777239Y512280D01*
X777239Y519177D01*
X785877Y519177D01*
X785877Y503034D01*
X785021Y503169D01*
G37*
%LPD*%
%LPC*%
G36*
X788923Y683513D02*
X788923Y683513D01*
X788923Y697615D01*
X790067Y697387D01*
X791732Y696698D01*
X793230Y695697D01*
X794503Y694424D01*
X795504Y692926D01*
X796193Y691261D01*
X796545Y689495D01*
X796545Y683513D01*
X788923Y683513D01*
G37*
%LPD*%
%LPC*%
G36*
X788923Y680467D02*
X788923Y680467D01*
X796545Y680467D01*
X796545Y674485D01*
X796193Y672719D01*
X795504Y671054D01*
X794503Y669556D01*
X793230Y668283D01*
X791732Y667282D01*
X790067Y666593D01*
X788923Y666365D01*
X788923Y680467D01*
G37*
%LPD*%
%LPC*%
G36*
X778255Y683513D02*
X778255Y683513D01*
X778255Y689495D01*
X778607Y691261D01*
X779296Y692926D01*
X780297Y694424D01*
X781570Y695697D01*
X783068Y696698D01*
X784733Y697387D01*
X785877Y697615D01*
X785877Y683513D01*
X778255Y683513D01*
G37*
%LPD*%
%LPC*%
G36*
X784733Y666593D02*
X784733Y666593D01*
X783068Y667282D01*
X781570Y668283D01*
X780297Y669556D01*
X779296Y671054D01*
X778607Y672719D01*
X778255Y674485D01*
X778255Y680467D01*
X785877Y680467D01*
X785877Y666365D01*
X784733Y666593D01*
G37*
%LPD*%
%LPC*%
G36*
X509523Y357123D02*
X509523Y357123D01*
X509523Y364681D01*
X515434Y364681D01*
X517189Y364332D01*
X518841Y363647D01*
X520329Y362653D01*
X521593Y361389D01*
X522587Y359901D01*
X523272Y358249D01*
X523496Y357123D01*
X509523Y357123D01*
G37*
%LPD*%
%LPC*%
G36*
X492504Y357123D02*
X492504Y357123D01*
X492728Y358249D01*
X493413Y359901D01*
X494407Y361389D01*
X495671Y362653D01*
X497159Y363647D01*
X498811Y364332D01*
X500566Y364681D01*
X506477Y364681D01*
X506477Y357123D01*
X492504Y357123D01*
G37*
%LPD*%
%LPC*%
G36*
X509523Y346519D02*
X509523Y346519D01*
X509523Y354077D01*
X523496Y354077D01*
X523272Y352951D01*
X522587Y351299D01*
X521593Y349811D01*
X520329Y348547D01*
X518841Y347553D01*
X517189Y346868D01*
X515434Y346519D01*
X509523Y346519D01*
G37*
%LPD*%
%LPC*%
G36*
X500566Y346519D02*
X500566Y346519D01*
X498811Y346868D01*
X497159Y347553D01*
X495671Y348547D01*
X494407Y349811D01*
X493413Y351299D01*
X492728Y352951D01*
X492504Y354077D01*
X506477Y354077D01*
X506477Y346519D01*
X500566Y346519D01*
G37*
%LPD*%
%LPC*%
G36*
X457199Y457199D02*
X457199Y457199D01*
X457199Y457201D01*
X457201Y457201D01*
X457201Y457199D01*
X457199Y457199D01*
G37*
%LPD*%
%LPC*%
G36*
X787399Y681989D02*
X787399Y681989D01*
X787399Y681991D01*
X787401Y681991D01*
X787401Y681989D01*
X787399Y681989D01*
G37*
%LPD*%
%LPC*%
G36*
X507999Y355599D02*
X507999Y355599D01*
X507999Y355601D01*
X508001Y355601D01*
X508001Y355599D01*
X507999Y355599D01*
G37*
%LPD*%
%LPC*%
G36*
X426719Y330599D02*
X426719Y330599D01*
X426719Y330601D01*
X426721Y330601D01*
X426721Y330599D01*
X426719Y330599D01*
G37*
%LPD*%
%LPC*%
G36*
X787399Y520699D02*
X787399Y520699D01*
X787399Y520701D01*
X787401Y520701D01*
X787401Y520699D01*
X787399Y520699D01*
G37*
%LPD*%
%LPC*%
G36*
X708659Y380999D02*
X708659Y380999D01*
X708659Y381001D01*
X708661Y381001D01*
X708661Y380999D01*
X708659Y380999D01*
G37*
%LPD*%
D10*
X838200Y688594D02*
X838200Y675386D01*
X812800Y675386D02*
X812800Y688594D01*
X787400Y688594D02*
X787400Y675386D01*
X762000Y675386D02*
X762000Y688594D01*
X736600Y688594D02*
X736600Y675386D01*
X711200Y675386D02*
X711200Y688594D01*
D11*
X464820Y609600D02*
X449580Y609600D01*
X449580Y584200D02*
X464820Y584200D01*
X464820Y558800D02*
X449580Y558800D01*
X449580Y533400D02*
X464820Y533400D01*
X464820Y508000D02*
X449580Y508000D01*
X449580Y482600D02*
X464820Y482600D01*
X464820Y457200D02*
X449580Y457200D01*
X449580Y431800D02*
X464820Y431800D01*
D12*
X435674Y380600D02*
X417767Y380600D01*
X417767Y330600D02*
X435674Y330600D01*
D11*
X838200Y513080D02*
X838200Y528320D01*
X812800Y528320D02*
X812800Y513080D01*
X787400Y513080D02*
X787400Y528320D01*
X762000Y528320D02*
X762000Y513080D01*
X736600Y513080D02*
X736600Y528320D01*
X711200Y528320D02*
X711200Y513080D01*
X716280Y330200D02*
X701040Y330200D01*
X701040Y355600D02*
X716280Y355600D01*
X716280Y381000D02*
X701040Y381000D01*
X701040Y406400D02*
X716280Y406400D01*
X716280Y431800D02*
X701040Y431800D01*
X701040Y457200D02*
X716280Y457200D01*
D13*
X666940Y330200D02*
X653860Y330200D01*
X653860Y355600D02*
X666940Y355600D01*
X666940Y381000D02*
X653860Y381000D01*
X653860Y406400D02*
X666940Y406400D01*
X666940Y431800D02*
X653860Y431800D01*
X653860Y457200D02*
X666940Y457200D01*
X666940Y482600D02*
X653860Y482600D01*
X653860Y508000D02*
X666940Y508000D01*
X666940Y533400D02*
X653860Y533400D01*
X653860Y558800D02*
X666940Y558800D01*
X666940Y584200D02*
X653860Y584200D01*
X653860Y609600D02*
X666940Y609600D01*
X514540Y330200D02*
X501460Y330200D01*
X501460Y355600D02*
X514540Y355600D01*
X514540Y381000D02*
X501460Y381000D01*
X501460Y533400D02*
X514540Y533400D01*
X514540Y558800D02*
X501460Y558800D01*
X501460Y584200D02*
X514540Y584200D01*
X514540Y609600D02*
X501460Y609600D01*
X501460Y685800D02*
X514540Y685800D01*
X653860Y685800D02*
X666940Y685800D01*
X666940Y660400D02*
X653860Y660400D01*
X653860Y635000D02*
X666940Y635000D01*
X514540Y660400D02*
X501460Y660400D01*
X501460Y635000D02*
X514540Y635000D01*
X514540Y406400D02*
X501460Y406400D01*
D14*
X558800Y342900D03*
X584200Y342900D03*
X609600Y342900D03*
D13*
X514540Y508000D02*
X501460Y508000D01*
X501460Y482600D02*
X514540Y482600D01*
X514540Y457200D02*
X501460Y457200D01*
X501460Y431800D02*
X514540Y431800D01*
D14*
X558800Y317500D03*
X584200Y317500D03*
X609600Y317500D03*
D12*
X803847Y571900D02*
X821754Y571900D01*
X821754Y621900D02*
X803847Y621900D01*
X762400Y364554D02*
X762400Y346647D01*
X812400Y346647D02*
X812400Y364554D01*
D15*
X787400Y635000D02*
X660400Y635000D01*
X787400Y635000D02*
X812800Y660400D01*
X812800Y681990D01*
M02*
