G04 EAGLE Gerber RS-274X export*
G75*
%MOMM*%
%FSLAX34Y34*%
%LPD*%
%INTop Copper*%
%IPPOS*%
%AMOC8*
5,1,8,0,0,1.08239X$1,22.5*%
G01*
%ADD10C,1.320800*%
%ADD11C,1.524000*%
%ADD12C,1.790700*%
%ADD13C,1.308000*%
%ADD14C,1.308000*%
%ADD15C,0.317500*%
%ADD16C,0.635000*%

G36*
X555456Y308626D02*
X555456Y308626D01*
X555552Y308636D01*
X555576Y308646D01*
X555602Y308650D01*
X555688Y308696D01*
X555777Y308736D01*
X555796Y308753D01*
X555820Y308766D01*
X555887Y308836D01*
X555958Y308902D01*
X555971Y308925D01*
X555989Y308944D01*
X556030Y309032D01*
X556077Y309118D01*
X556082Y309143D01*
X556093Y309167D01*
X556103Y309264D01*
X556121Y309360D01*
X556117Y309386D01*
X556120Y309411D01*
X556099Y309507D01*
X556085Y309603D01*
X556073Y309626D01*
X556067Y309652D01*
X556018Y309735D01*
X555973Y309822D01*
X555955Y309841D01*
X555941Y309863D01*
X555867Y309926D01*
X555798Y309994D01*
X555769Y310010D01*
X555754Y310023D01*
X555724Y310035D01*
X555651Y310075D01*
X554232Y310663D01*
X551963Y312932D01*
X550735Y315896D01*
X550735Y319104D01*
X551963Y322068D01*
X554232Y324337D01*
X557196Y325565D01*
X560404Y325565D01*
X563368Y324337D01*
X565637Y322068D01*
X566865Y319104D01*
X566865Y315896D01*
X565637Y312932D01*
X563368Y310663D01*
X561949Y310075D01*
X561866Y310024D01*
X561780Y309978D01*
X561762Y309960D01*
X561740Y309946D01*
X561678Y309870D01*
X561611Y309800D01*
X561600Y309776D01*
X561583Y309756D01*
X561548Y309665D01*
X561507Y309577D01*
X561505Y309551D01*
X561495Y309527D01*
X561491Y309429D01*
X561480Y309333D01*
X561486Y309307D01*
X561485Y309281D01*
X561512Y309187D01*
X561533Y309092D01*
X561546Y309070D01*
X561553Y309045D01*
X561609Y308965D01*
X561659Y308881D01*
X561679Y308864D01*
X561694Y308843D01*
X561772Y308784D01*
X561846Y308721D01*
X561870Y308711D01*
X561891Y308696D01*
X561983Y308666D01*
X562074Y308629D01*
X562106Y308626D01*
X562125Y308620D01*
X562158Y308620D01*
X562241Y308611D01*
X580759Y308611D01*
X580856Y308626D01*
X580952Y308636D01*
X580976Y308646D01*
X581002Y308650D01*
X581088Y308696D01*
X581177Y308736D01*
X581196Y308753D01*
X581220Y308766D01*
X581287Y308836D01*
X581358Y308902D01*
X581371Y308925D01*
X581389Y308944D01*
X581430Y309032D01*
X581477Y309118D01*
X581482Y309143D01*
X581493Y309167D01*
X581503Y309264D01*
X581521Y309360D01*
X581517Y309386D01*
X581520Y309411D01*
X581499Y309507D01*
X581485Y309603D01*
X581473Y309626D01*
X581467Y309652D01*
X581418Y309735D01*
X581373Y309822D01*
X581355Y309841D01*
X581341Y309863D01*
X581267Y309926D01*
X581198Y309994D01*
X581169Y310010D01*
X581154Y310023D01*
X581124Y310035D01*
X581051Y310075D01*
X579632Y310663D01*
X577363Y312932D01*
X576135Y315896D01*
X576135Y319104D01*
X577363Y322068D01*
X579632Y324337D01*
X582596Y325565D01*
X585804Y325565D01*
X588768Y324337D01*
X591037Y322068D01*
X592265Y319104D01*
X592265Y315896D01*
X591037Y312932D01*
X588768Y310663D01*
X587349Y310075D01*
X587266Y310024D01*
X587180Y309978D01*
X587162Y309960D01*
X587140Y309946D01*
X587078Y309870D01*
X587011Y309800D01*
X587000Y309776D01*
X586983Y309756D01*
X586948Y309665D01*
X586907Y309577D01*
X586905Y309551D01*
X586895Y309527D01*
X586891Y309429D01*
X586880Y309333D01*
X586886Y309307D01*
X586885Y309281D01*
X586912Y309187D01*
X586933Y309092D01*
X586946Y309070D01*
X586953Y309045D01*
X587009Y308965D01*
X587059Y308881D01*
X587079Y308864D01*
X587094Y308843D01*
X587172Y308784D01*
X587246Y308721D01*
X587270Y308711D01*
X587291Y308696D01*
X587383Y308666D01*
X587474Y308629D01*
X587506Y308626D01*
X587525Y308620D01*
X587558Y308620D01*
X587641Y308611D01*
X606159Y308611D01*
X606256Y308626D01*
X606352Y308636D01*
X606376Y308646D01*
X606402Y308650D01*
X606488Y308696D01*
X606577Y308736D01*
X606596Y308753D01*
X606620Y308766D01*
X606687Y308836D01*
X606758Y308902D01*
X606771Y308925D01*
X606789Y308944D01*
X606830Y309032D01*
X606877Y309118D01*
X606882Y309143D01*
X606893Y309167D01*
X606903Y309264D01*
X606921Y309360D01*
X606917Y309386D01*
X606920Y309411D01*
X606899Y309507D01*
X606885Y309603D01*
X606873Y309626D01*
X606867Y309652D01*
X606818Y309735D01*
X606773Y309822D01*
X606755Y309841D01*
X606741Y309863D01*
X606667Y309926D01*
X606598Y309994D01*
X606569Y310010D01*
X606554Y310023D01*
X606524Y310035D01*
X606451Y310075D01*
X605032Y310663D01*
X602763Y312932D01*
X601535Y315896D01*
X601535Y319104D01*
X602763Y322068D01*
X605032Y324337D01*
X607996Y325565D01*
X611204Y325565D01*
X614168Y324337D01*
X616437Y322068D01*
X617665Y319104D01*
X617665Y315896D01*
X616437Y312932D01*
X614168Y310663D01*
X612749Y310075D01*
X612666Y310024D01*
X612580Y309978D01*
X612562Y309960D01*
X612540Y309946D01*
X612478Y309870D01*
X612411Y309800D01*
X612400Y309776D01*
X612383Y309756D01*
X612348Y309665D01*
X612307Y309577D01*
X612305Y309551D01*
X612295Y309527D01*
X612291Y309429D01*
X612280Y309333D01*
X612286Y309307D01*
X612285Y309281D01*
X612312Y309187D01*
X612333Y309092D01*
X612346Y309070D01*
X612353Y309045D01*
X612409Y308965D01*
X612459Y308881D01*
X612479Y308864D01*
X612494Y308843D01*
X612572Y308784D01*
X612646Y308721D01*
X612670Y308711D01*
X612691Y308696D01*
X612783Y308666D01*
X612874Y308629D01*
X612906Y308626D01*
X612925Y308620D01*
X612958Y308620D01*
X613041Y308611D01*
X851208Y308611D01*
X851228Y308614D01*
X851247Y308612D01*
X851349Y308634D01*
X851451Y308650D01*
X851468Y308660D01*
X851488Y308664D01*
X851577Y308717D01*
X851668Y308766D01*
X851682Y308780D01*
X851699Y308790D01*
X851766Y308869D01*
X851838Y308944D01*
X851846Y308962D01*
X851859Y308977D01*
X851898Y309073D01*
X851941Y309167D01*
X851943Y309187D01*
X851951Y309205D01*
X851969Y309372D01*
X851969Y700788D01*
X851966Y700808D01*
X851968Y700827D01*
X851946Y700929D01*
X851930Y701031D01*
X851920Y701048D01*
X851916Y701068D01*
X851863Y701157D01*
X851814Y701248D01*
X851800Y701262D01*
X851790Y701279D01*
X851711Y701346D01*
X851636Y701418D01*
X851618Y701426D01*
X851603Y701439D01*
X851507Y701478D01*
X851413Y701521D01*
X851393Y701523D01*
X851375Y701531D01*
X851208Y701549D01*
X383032Y701549D01*
X383012Y701546D01*
X382993Y701548D01*
X382891Y701526D01*
X382789Y701510D01*
X382772Y701500D01*
X382752Y701496D01*
X382663Y701443D01*
X382572Y701394D01*
X382558Y701380D01*
X382541Y701370D01*
X382474Y701291D01*
X382402Y701216D01*
X382394Y701198D01*
X382381Y701183D01*
X382342Y701087D01*
X382299Y700993D01*
X382297Y700973D01*
X382289Y700955D01*
X382271Y700788D01*
X382271Y309372D01*
X382274Y309352D01*
X382272Y309333D01*
X382294Y309231D01*
X382310Y309129D01*
X382320Y309112D01*
X382324Y309092D01*
X382377Y309003D01*
X382426Y308912D01*
X382440Y308898D01*
X382450Y308881D01*
X382529Y308814D01*
X382604Y308742D01*
X382622Y308734D01*
X382637Y308721D01*
X382733Y308682D01*
X382827Y308639D01*
X382847Y308637D01*
X382865Y308629D01*
X383032Y308611D01*
X555359Y308611D01*
X555456Y308626D01*
G37*
%LPC*%
G36*
X699221Y321055D02*
X699221Y321055D01*
X695860Y322447D01*
X693287Y325020D01*
X691895Y328381D01*
X691895Y332019D01*
X693287Y335380D01*
X695860Y337953D01*
X699221Y339345D01*
X718099Y339345D01*
X721460Y337953D01*
X724033Y335380D01*
X724037Y335370D01*
X724098Y335271D01*
X724158Y335170D01*
X724163Y335166D01*
X724166Y335161D01*
X724256Y335086D01*
X724345Y335010D01*
X724351Y335008D01*
X724356Y335004D01*
X724464Y334962D01*
X724573Y334918D01*
X724581Y334917D01*
X724585Y334916D01*
X724604Y334915D01*
X724740Y334900D01*
X759551Y334900D01*
X759647Y334915D01*
X759744Y334925D01*
X759768Y334935D01*
X759794Y334939D01*
X759880Y334985D01*
X759969Y335025D01*
X759988Y335042D01*
X760011Y335055D01*
X760078Y335125D01*
X760150Y335191D01*
X760163Y335214D01*
X760181Y335233D01*
X760222Y335321D01*
X760269Y335407D01*
X760273Y335432D01*
X760284Y335456D01*
X760295Y335553D01*
X760312Y335649D01*
X760309Y335675D01*
X760311Y335700D01*
X760291Y335796D01*
X760277Y335892D01*
X760265Y335915D01*
X760259Y335941D01*
X760209Y336024D01*
X760165Y336111D01*
X760146Y336130D01*
X760133Y336152D01*
X760059Y336215D01*
X759990Y336283D01*
X759961Y336299D01*
X759946Y336312D01*
X759915Y336324D01*
X759843Y336364D01*
X756465Y337763D01*
X753517Y340711D01*
X751922Y344562D01*
X751922Y350139D01*
X751919Y350159D01*
X751921Y350178D01*
X751899Y350280D01*
X751882Y350382D01*
X751873Y350399D01*
X751868Y350419D01*
X751815Y350508D01*
X751767Y350599D01*
X751753Y350613D01*
X751742Y350630D01*
X751664Y350697D01*
X751589Y350769D01*
X751571Y350777D01*
X751555Y350790D01*
X751459Y350829D01*
X751366Y350872D01*
X751346Y350874D01*
X751327Y350882D01*
X751161Y350900D01*
X724740Y350900D01*
X724625Y350881D01*
X724509Y350864D01*
X724504Y350862D01*
X724497Y350861D01*
X724394Y350806D01*
X724290Y350753D01*
X724286Y350748D01*
X724280Y350745D01*
X724200Y350661D01*
X724118Y350577D01*
X724114Y350571D01*
X724111Y350567D01*
X724103Y350550D01*
X724037Y350430D01*
X724033Y350420D01*
X721460Y347847D01*
X718099Y346455D01*
X699221Y346455D01*
X695860Y347847D01*
X693287Y350420D01*
X691895Y353781D01*
X691895Y357419D01*
X693287Y360780D01*
X695860Y363353D01*
X699221Y364745D01*
X718099Y364745D01*
X721460Y363353D01*
X724033Y360780D01*
X724037Y360770D01*
X724098Y360671D01*
X724158Y360570D01*
X724163Y360566D01*
X724166Y360561D01*
X724256Y360486D01*
X724345Y360410D01*
X724351Y360408D01*
X724356Y360404D01*
X724464Y360362D01*
X724573Y360318D01*
X724581Y360317D01*
X724585Y360316D01*
X724604Y360315D01*
X724740Y360300D01*
X751161Y360300D01*
X751180Y360303D01*
X751200Y360301D01*
X751301Y360323D01*
X751403Y360339D01*
X751421Y360349D01*
X751440Y360353D01*
X751529Y360406D01*
X751621Y360455D01*
X751634Y360469D01*
X751651Y360479D01*
X751719Y360558D01*
X751790Y360633D01*
X751798Y360651D01*
X751811Y360666D01*
X751850Y360762D01*
X751894Y360856D01*
X751896Y360876D01*
X751903Y360894D01*
X751922Y361061D01*
X751922Y366638D01*
X753517Y370489D01*
X756465Y373437D01*
X760316Y375032D01*
X764484Y375032D01*
X768335Y373437D01*
X771283Y370489D01*
X772878Y366638D01*
X772878Y344562D01*
X771283Y340711D01*
X768335Y337763D01*
X764957Y336364D01*
X764874Y336313D01*
X764789Y336267D01*
X764771Y336249D01*
X764748Y336235D01*
X764686Y336159D01*
X764619Y336089D01*
X764608Y336065D01*
X764592Y336045D01*
X764557Y335954D01*
X764516Y335866D01*
X764513Y335840D01*
X764503Y335816D01*
X764499Y335718D01*
X764489Y335622D01*
X764494Y335596D01*
X764493Y335570D01*
X764520Y335476D01*
X764541Y335381D01*
X764554Y335359D01*
X764562Y335334D01*
X764617Y335254D01*
X764667Y335170D01*
X764687Y335153D01*
X764702Y335132D01*
X764780Y335073D01*
X764854Y335010D01*
X764878Y335000D01*
X764899Y334985D01*
X764992Y334955D01*
X765082Y334918D01*
X765115Y334915D01*
X765133Y334909D01*
X765166Y334909D01*
X765249Y334900D01*
X784738Y334900D01*
X784828Y334914D01*
X784919Y334922D01*
X784949Y334934D01*
X784981Y334939D01*
X785061Y334982D01*
X785145Y335018D01*
X785177Y335044D01*
X785198Y335055D01*
X785220Y335078D01*
X785276Y335123D01*
X801699Y351545D01*
X801752Y351619D01*
X801811Y351689D01*
X801824Y351719D01*
X801842Y351745D01*
X801869Y351832D01*
X801903Y351917D01*
X801908Y351958D01*
X801915Y351980D01*
X801914Y352012D01*
X801922Y352084D01*
X801922Y366638D01*
X803517Y370489D01*
X806465Y373437D01*
X810316Y375032D01*
X814484Y375032D01*
X818335Y373437D01*
X821283Y370489D01*
X822878Y366638D01*
X822878Y344562D01*
X821283Y340711D01*
X818335Y337763D01*
X814484Y336168D01*
X810316Y336168D01*
X806465Y337763D01*
X804375Y339853D01*
X804359Y339864D01*
X804347Y339880D01*
X804259Y339936D01*
X804176Y339996D01*
X804157Y340002D01*
X804140Y340013D01*
X804039Y340038D01*
X803941Y340068D01*
X803921Y340068D01*
X803901Y340073D01*
X803798Y340065D01*
X803695Y340062D01*
X803676Y340055D01*
X803656Y340054D01*
X803561Y340013D01*
X803464Y339978D01*
X803448Y339965D01*
X803430Y339957D01*
X803299Y339853D01*
X788947Y325500D01*
X724740Y325500D01*
X724625Y325481D01*
X724509Y325464D01*
X724504Y325462D01*
X724497Y325461D01*
X724394Y325406D01*
X724290Y325353D01*
X724286Y325348D01*
X724280Y325345D01*
X724200Y325261D01*
X724118Y325177D01*
X724114Y325171D01*
X724111Y325167D01*
X724103Y325150D01*
X724037Y325030D01*
X724033Y325020D01*
X721460Y322447D01*
X718099Y321055D01*
X699221Y321055D01*
G37*
%LPD*%
%LPC*%
G36*
X810981Y503935D02*
X810981Y503935D01*
X807620Y505327D01*
X805047Y507900D01*
X803655Y511261D01*
X803655Y530139D01*
X805047Y533500D01*
X807620Y536073D01*
X807630Y536077D01*
X807729Y536138D01*
X807830Y536198D01*
X807834Y536203D01*
X807839Y536206D01*
X807914Y536296D01*
X807990Y536385D01*
X807992Y536391D01*
X807996Y536396D01*
X808038Y536504D01*
X808082Y536613D01*
X808083Y536621D01*
X808084Y536625D01*
X808085Y536644D01*
X808100Y536780D01*
X808100Y560661D01*
X808097Y560680D01*
X808099Y560700D01*
X808077Y560801D01*
X808061Y560903D01*
X808051Y560921D01*
X808047Y560940D01*
X807994Y561029D01*
X807945Y561121D01*
X807931Y561134D01*
X807921Y561151D01*
X807842Y561219D01*
X807767Y561290D01*
X807749Y561298D01*
X807734Y561311D01*
X807638Y561350D01*
X807544Y561394D01*
X807524Y561396D01*
X807506Y561403D01*
X807339Y561422D01*
X801762Y561422D01*
X797911Y563017D01*
X794963Y565965D01*
X793368Y569816D01*
X793368Y573984D01*
X794963Y577835D01*
X797911Y580783D01*
X801762Y582378D01*
X823838Y582378D01*
X827689Y580783D01*
X830637Y577835D01*
X832036Y574457D01*
X832087Y574374D01*
X832133Y574289D01*
X832151Y574271D01*
X832165Y574248D01*
X832241Y574186D01*
X832311Y574119D01*
X832335Y574108D01*
X832355Y574092D01*
X832446Y574057D01*
X832534Y574016D01*
X832560Y574013D01*
X832584Y574003D01*
X832682Y573999D01*
X832778Y573989D01*
X832804Y573994D01*
X832830Y573993D01*
X832924Y574020D01*
X833019Y574041D01*
X833041Y574054D01*
X833066Y574062D01*
X833146Y574117D01*
X833230Y574167D01*
X833247Y574187D01*
X833268Y574202D01*
X833327Y574280D01*
X833390Y574354D01*
X833400Y574378D01*
X833415Y574399D01*
X833445Y574492D01*
X833482Y574582D01*
X833485Y574615D01*
X833491Y574633D01*
X833491Y574666D01*
X833500Y574749D01*
X833500Y607338D01*
X833486Y607428D01*
X833478Y607519D01*
X833466Y607549D01*
X833461Y607581D01*
X833418Y607661D01*
X833382Y607745D01*
X833356Y607777D01*
X833345Y607798D01*
X833322Y607820D01*
X833277Y607876D01*
X828365Y612788D01*
X828271Y612856D01*
X828177Y612926D01*
X828171Y612928D01*
X828165Y612932D01*
X828054Y612966D01*
X827943Y613003D01*
X827936Y613002D01*
X827930Y613004D01*
X827814Y613001D01*
X827697Y613000D01*
X827689Y612998D01*
X827684Y612998D01*
X827667Y612992D01*
X827536Y612953D01*
X823838Y611422D01*
X801762Y611422D01*
X797911Y613017D01*
X794963Y615965D01*
X793368Y619816D01*
X793368Y623984D01*
X794963Y627835D01*
X797911Y630783D01*
X801762Y632378D01*
X823838Y632378D01*
X827689Y630783D01*
X830637Y627835D01*
X832232Y623984D01*
X832232Y622530D01*
X832246Y622440D01*
X832254Y622349D01*
X832266Y622319D01*
X832271Y622287D01*
X832314Y622207D01*
X832350Y622123D01*
X832376Y622091D01*
X832387Y622070D01*
X832410Y622048D01*
X832455Y621992D01*
X842900Y611547D01*
X842900Y536780D01*
X842919Y536665D01*
X842936Y536549D01*
X842938Y536544D01*
X842939Y536537D01*
X842994Y536434D01*
X843047Y536330D01*
X843052Y536326D01*
X843055Y536320D01*
X843139Y536240D01*
X843223Y536158D01*
X843229Y536154D01*
X843233Y536151D01*
X843250Y536143D01*
X843370Y536077D01*
X843380Y536073D01*
X845953Y533500D01*
X847345Y530139D01*
X847345Y511261D01*
X845953Y507900D01*
X843380Y505327D01*
X840019Y503935D01*
X836381Y503935D01*
X833020Y505327D01*
X830447Y507900D01*
X829055Y511261D01*
X829055Y530139D01*
X830447Y533500D01*
X833020Y536073D01*
X833030Y536077D01*
X833129Y536138D01*
X833230Y536198D01*
X833234Y536203D01*
X833239Y536206D01*
X833314Y536296D01*
X833390Y536385D01*
X833392Y536391D01*
X833396Y536396D01*
X833438Y536504D01*
X833482Y536613D01*
X833483Y536621D01*
X833484Y536625D01*
X833485Y536644D01*
X833500Y536780D01*
X833500Y569051D01*
X833485Y569147D01*
X833475Y569244D01*
X833465Y569268D01*
X833461Y569294D01*
X833415Y569380D01*
X833375Y569469D01*
X833358Y569488D01*
X833345Y569511D01*
X833275Y569578D01*
X833209Y569650D01*
X833186Y569663D01*
X833167Y569681D01*
X833079Y569722D01*
X832993Y569769D01*
X832968Y569773D01*
X832944Y569784D01*
X832847Y569795D01*
X832751Y569812D01*
X832725Y569809D01*
X832700Y569811D01*
X832604Y569791D01*
X832508Y569777D01*
X832485Y569765D01*
X832459Y569759D01*
X832376Y569709D01*
X832289Y569665D01*
X832270Y569646D01*
X832248Y569633D01*
X832185Y569559D01*
X832117Y569490D01*
X832101Y569461D01*
X832088Y569446D01*
X832076Y569415D01*
X832036Y569343D01*
X830637Y565965D01*
X827689Y563017D01*
X823838Y561422D01*
X818261Y561422D01*
X818241Y561419D01*
X818222Y561421D01*
X818120Y561399D01*
X818018Y561382D01*
X818001Y561373D01*
X817981Y561368D01*
X817892Y561315D01*
X817801Y561267D01*
X817787Y561253D01*
X817770Y561242D01*
X817703Y561164D01*
X817631Y561089D01*
X817623Y561071D01*
X817610Y561055D01*
X817571Y560959D01*
X817528Y560866D01*
X817526Y560846D01*
X817518Y560827D01*
X817500Y560661D01*
X817500Y536780D01*
X817519Y536665D01*
X817536Y536549D01*
X817538Y536544D01*
X817539Y536537D01*
X817594Y536434D01*
X817647Y536330D01*
X817652Y536326D01*
X817655Y536320D01*
X817739Y536240D01*
X817823Y536158D01*
X817829Y536154D01*
X817833Y536151D01*
X817850Y536143D01*
X817970Y536077D01*
X817980Y536073D01*
X820553Y533500D01*
X821945Y530139D01*
X821945Y511261D01*
X820553Y507900D01*
X817980Y505327D01*
X814619Y503935D01*
X810981Y503935D01*
G37*
%LPD*%
%LPC*%
G36*
X652256Y423735D02*
X652256Y423735D01*
X649292Y424963D01*
X647023Y427232D01*
X646615Y428218D01*
X646553Y428318D01*
X646493Y428417D01*
X646488Y428421D01*
X646485Y428427D01*
X646394Y428502D01*
X646306Y428577D01*
X646300Y428580D01*
X646296Y428584D01*
X646187Y428625D01*
X646078Y428669D01*
X646070Y428670D01*
X646066Y428672D01*
X646048Y428673D01*
X645911Y428688D01*
X621011Y428688D01*
X606488Y443211D01*
X606488Y582596D01*
X606473Y582686D01*
X606466Y582777D01*
X606453Y582806D01*
X606448Y582838D01*
X606405Y582919D01*
X606370Y583003D01*
X606344Y583035D01*
X606333Y583056D01*
X606310Y583078D01*
X606265Y583134D01*
X595834Y593565D01*
X595760Y593618D01*
X595690Y593677D01*
X595660Y593690D01*
X595634Y593708D01*
X595547Y593735D01*
X595462Y593769D01*
X595421Y593774D01*
X595399Y593781D01*
X595367Y593780D01*
X595296Y593788D01*
X481311Y593788D01*
X472164Y602935D01*
X472148Y602946D01*
X472135Y602962D01*
X472048Y603018D01*
X471964Y603078D01*
X471945Y603084D01*
X471928Y603095D01*
X471828Y603120D01*
X471729Y603151D01*
X471709Y603150D01*
X471690Y603155D01*
X471587Y603147D01*
X471483Y603144D01*
X471464Y603137D01*
X471445Y603136D01*
X471350Y603095D01*
X471252Y603060D01*
X471237Y603047D01*
X471218Y603040D01*
X471087Y602935D01*
X470000Y601847D01*
X466639Y600455D01*
X447761Y600455D01*
X444400Y601847D01*
X441827Y604420D01*
X440435Y607781D01*
X440435Y611419D01*
X441827Y614780D01*
X444400Y617353D01*
X447761Y618745D01*
X466639Y618745D01*
X470000Y617353D01*
X472573Y614780D01*
X473965Y611419D01*
X473965Y610252D01*
X473979Y610162D01*
X473987Y610071D01*
X473999Y610041D01*
X474004Y610009D01*
X474047Y609929D01*
X474083Y609845D01*
X474109Y609813D01*
X474120Y609792D01*
X474143Y609770D01*
X474188Y609714D01*
X483666Y600235D01*
X483740Y600182D01*
X483810Y600123D01*
X483840Y600110D01*
X483866Y600092D01*
X483953Y600065D01*
X484038Y600031D01*
X484079Y600026D01*
X484101Y600019D01*
X484133Y600020D01*
X484204Y600012D01*
X598189Y600012D01*
X612712Y585489D01*
X612712Y446104D01*
X612727Y446014D01*
X612734Y445923D01*
X612747Y445894D01*
X612752Y445862D01*
X612795Y445781D01*
X612830Y445697D01*
X612856Y445665D01*
X612867Y445644D01*
X612890Y445622D01*
X612935Y445566D01*
X623366Y435135D01*
X623440Y435082D01*
X623510Y435023D01*
X623540Y435010D01*
X623566Y434992D01*
X623653Y434965D01*
X623738Y434931D01*
X623779Y434926D01*
X623801Y434919D01*
X623833Y434920D01*
X623904Y434912D01*
X645911Y434912D01*
X646026Y434931D01*
X646142Y434948D01*
X646148Y434951D01*
X646154Y434952D01*
X646257Y435006D01*
X646361Y435060D01*
X646366Y435064D01*
X646371Y435067D01*
X646451Y435151D01*
X646534Y435235D01*
X646537Y435242D01*
X646541Y435245D01*
X646549Y435262D01*
X646615Y435382D01*
X647023Y436368D01*
X649292Y438637D01*
X652256Y439865D01*
X668544Y439865D01*
X671508Y438637D01*
X673777Y436368D01*
X675005Y433404D01*
X675005Y430196D01*
X673777Y427232D01*
X671508Y424963D01*
X668544Y423735D01*
X652256Y423735D01*
G37*
%LPD*%
%LPC*%
G36*
X652256Y550735D02*
X652256Y550735D01*
X649292Y551963D01*
X647023Y554232D01*
X645795Y557196D01*
X645795Y560404D01*
X647023Y563368D01*
X649292Y565637D01*
X652256Y566865D01*
X668544Y566865D01*
X671508Y565637D01*
X673777Y563368D01*
X674185Y562382D01*
X674247Y562282D01*
X674307Y562183D01*
X674312Y562179D01*
X674315Y562173D01*
X674406Y562098D01*
X674494Y562023D01*
X674500Y562020D01*
X674504Y562016D01*
X674613Y561975D01*
X674722Y561931D01*
X674730Y561930D01*
X674734Y561928D01*
X674752Y561927D01*
X674889Y561912D01*
X734996Y561912D01*
X735086Y561927D01*
X735177Y561934D01*
X735206Y561947D01*
X735238Y561952D01*
X735319Y561995D01*
X735403Y562030D01*
X735435Y562056D01*
X735456Y562067D01*
X735478Y562090D01*
X735534Y562135D01*
X745965Y572566D01*
X746018Y572640D01*
X746077Y572710D01*
X746090Y572740D01*
X746108Y572766D01*
X746135Y572853D01*
X746169Y572938D01*
X746174Y572979D01*
X746181Y573001D01*
X746180Y573033D01*
X746188Y573104D01*
X746188Y648989D01*
X760711Y663512D01*
X823896Y663512D01*
X823986Y663527D01*
X824077Y663534D01*
X824106Y663547D01*
X824138Y663552D01*
X824219Y663595D01*
X824303Y663630D01*
X824335Y663656D01*
X824356Y663667D01*
X824378Y663690D01*
X824434Y663735D01*
X830999Y670301D01*
X831067Y670395D01*
X831137Y670489D01*
X831139Y670495D01*
X831143Y670500D01*
X831177Y670611D01*
X831213Y670723D01*
X831213Y670729D01*
X831215Y670735D01*
X831212Y670852D01*
X831211Y670969D01*
X831209Y670976D01*
X831209Y670981D01*
X831202Y670999D01*
X831164Y671130D01*
X830071Y673769D01*
X830071Y690211D01*
X831309Y693199D01*
X833595Y695485D01*
X836583Y696723D01*
X839817Y696723D01*
X842805Y695485D01*
X845091Y693199D01*
X846329Y690211D01*
X846329Y673769D01*
X845091Y670781D01*
X842805Y668495D01*
X839817Y667257D01*
X837074Y667257D01*
X836984Y667243D01*
X836893Y667235D01*
X836863Y667223D01*
X836831Y667218D01*
X836751Y667175D01*
X836667Y667139D01*
X836635Y667113D01*
X836614Y667102D01*
X836592Y667079D01*
X836536Y667034D01*
X826789Y657288D01*
X763604Y657288D01*
X763514Y657273D01*
X763423Y657266D01*
X763394Y657253D01*
X763362Y657248D01*
X763281Y657205D01*
X763197Y657170D01*
X763165Y657144D01*
X763144Y657133D01*
X763122Y657110D01*
X763120Y657108D01*
X763117Y657105D01*
X763066Y657065D01*
X752635Y646634D01*
X752582Y646560D01*
X752523Y646490D01*
X752510Y646460D01*
X752492Y646434D01*
X752465Y646347D01*
X752431Y646262D01*
X752426Y646221D01*
X752419Y646199D01*
X752420Y646167D01*
X752412Y646096D01*
X752412Y570211D01*
X737889Y555688D01*
X674889Y555688D01*
X674774Y555669D01*
X674658Y555652D01*
X674652Y555649D01*
X674646Y555648D01*
X674543Y555594D01*
X674439Y555540D01*
X674434Y555536D01*
X674429Y555533D01*
X674349Y555449D01*
X674266Y555365D01*
X674263Y555358D01*
X674259Y555355D01*
X674251Y555338D01*
X674185Y555218D01*
X673777Y554232D01*
X671508Y551963D01*
X668544Y550735D01*
X652256Y550735D01*
G37*
%LPD*%
%LPC*%
G36*
X499856Y322135D02*
X499856Y322135D01*
X496892Y323363D01*
X494977Y325277D01*
X494904Y325330D01*
X494834Y325390D01*
X494804Y325402D01*
X494778Y325421D01*
X494691Y325448D01*
X494606Y325482D01*
X494565Y325486D01*
X494543Y325493D01*
X494510Y325492D01*
X494439Y325500D01*
X480653Y325500D01*
X465200Y340953D01*
X465200Y366038D01*
X465186Y366128D01*
X465178Y366219D01*
X465166Y366249D01*
X465161Y366281D01*
X465118Y366361D01*
X465082Y366445D01*
X465056Y366477D01*
X465045Y366498D01*
X465022Y366520D01*
X464977Y366576D01*
X455876Y375677D01*
X455802Y375730D01*
X455733Y375790D01*
X455703Y375802D01*
X455677Y375821D01*
X455590Y375848D01*
X455505Y375882D01*
X455464Y375886D01*
X455441Y375893D01*
X455409Y375892D01*
X455338Y375900D01*
X445577Y375900D01*
X445462Y375881D01*
X445346Y375864D01*
X445340Y375862D01*
X445334Y375861D01*
X445232Y375806D01*
X445127Y375753D01*
X445122Y375748D01*
X445117Y375745D01*
X445037Y375661D01*
X444955Y375577D01*
X444951Y375571D01*
X444948Y375567D01*
X444940Y375550D01*
X444874Y375430D01*
X444557Y374665D01*
X441609Y371717D01*
X437758Y370122D01*
X415682Y370122D01*
X411831Y371717D01*
X408883Y374665D01*
X407288Y378516D01*
X407288Y382684D01*
X408883Y386535D01*
X411831Y389483D01*
X415682Y391078D01*
X437758Y391078D01*
X441609Y389483D01*
X444557Y386535D01*
X444874Y385770D01*
X444935Y385670D01*
X444995Y385570D01*
X445000Y385566D01*
X445003Y385561D01*
X445093Y385486D01*
X445182Y385410D01*
X445188Y385408D01*
X445193Y385404D01*
X445301Y385362D01*
X445410Y385318D01*
X445418Y385317D01*
X445422Y385316D01*
X445441Y385315D01*
X445577Y385300D01*
X459547Y385300D01*
X462523Y382324D01*
X471624Y373223D01*
X474600Y370247D01*
X474600Y345162D01*
X474614Y345072D01*
X474622Y344981D01*
X474634Y344951D01*
X474639Y344919D01*
X474664Y344873D01*
X474664Y344871D01*
X474671Y344860D01*
X474682Y344839D01*
X474718Y344755D01*
X474744Y344723D01*
X474755Y344702D01*
X474778Y344680D01*
X474781Y344676D01*
X474790Y344660D01*
X474801Y344651D01*
X474823Y344624D01*
X484324Y335123D01*
X484398Y335070D01*
X484467Y335010D01*
X484497Y334998D01*
X484523Y334979D01*
X484610Y334952D01*
X484695Y334918D01*
X484736Y334914D01*
X484759Y334907D01*
X484791Y334908D01*
X484862Y334900D01*
X494439Y334900D01*
X494529Y334914D01*
X494620Y334922D01*
X494650Y334934D01*
X494682Y334939D01*
X494763Y334982D01*
X494846Y335018D01*
X494879Y335044D01*
X494899Y335055D01*
X494921Y335078D01*
X494977Y335123D01*
X496892Y337037D01*
X499856Y338265D01*
X516144Y338265D01*
X519108Y337037D01*
X521377Y334768D01*
X522605Y331804D01*
X522605Y328596D01*
X521377Y325632D01*
X519108Y323363D01*
X516144Y322135D01*
X499856Y322135D01*
G37*
%LPD*%
%LPC*%
G36*
X652256Y576135D02*
X652256Y576135D01*
X649292Y577363D01*
X647023Y579632D01*
X645795Y582596D01*
X645795Y585804D01*
X647023Y588768D01*
X649292Y591037D01*
X652256Y592265D01*
X668544Y592265D01*
X671508Y591037D01*
X673777Y588768D01*
X674185Y587782D01*
X674247Y587682D01*
X674307Y587583D01*
X674312Y587579D01*
X674315Y587573D01*
X674406Y587498D01*
X674494Y587423D01*
X674500Y587420D01*
X674504Y587416D01*
X674613Y587375D01*
X674722Y587331D01*
X674730Y587330D01*
X674734Y587328D01*
X674752Y587327D01*
X674889Y587312D01*
X722296Y587312D01*
X722386Y587327D01*
X722477Y587334D01*
X722506Y587347D01*
X722538Y587352D01*
X722619Y587395D01*
X722703Y587430D01*
X722735Y587456D01*
X722756Y587467D01*
X722778Y587490D01*
X722834Y587535D01*
X733265Y597966D01*
X733318Y598040D01*
X733377Y598110D01*
X733390Y598140D01*
X733408Y598166D01*
X733435Y598253D01*
X733469Y598338D01*
X733474Y598379D01*
X733481Y598401D01*
X733480Y598433D01*
X733488Y598504D01*
X733488Y667368D01*
X733469Y667483D01*
X733452Y667599D01*
X733449Y667605D01*
X733448Y667611D01*
X733394Y667713D01*
X733340Y667818D01*
X733336Y667823D01*
X733333Y667828D01*
X733248Y667908D01*
X733165Y667990D01*
X733158Y667994D01*
X733155Y667998D01*
X733138Y668005D01*
X733018Y668071D01*
X731995Y668495D01*
X729709Y670781D01*
X728471Y673769D01*
X728471Y690211D01*
X729709Y693199D01*
X731995Y695485D01*
X734983Y696723D01*
X738217Y696723D01*
X741205Y695485D01*
X743491Y693199D01*
X744729Y690211D01*
X744729Y673769D01*
X743491Y670781D01*
X741205Y668495D01*
X740182Y668071D01*
X740083Y668010D01*
X739983Y667950D01*
X739978Y667945D01*
X739973Y667942D01*
X739899Y667852D01*
X739823Y667763D01*
X739820Y667757D01*
X739816Y667752D01*
X739775Y667644D01*
X739731Y667535D01*
X739730Y667527D01*
X739728Y667523D01*
X739727Y667504D01*
X739712Y667368D01*
X739712Y595611D01*
X725189Y581088D01*
X674889Y581088D01*
X674774Y581069D01*
X674658Y581052D01*
X674652Y581049D01*
X674646Y581048D01*
X674543Y580994D01*
X674439Y580940D01*
X674434Y580936D01*
X674429Y580933D01*
X674349Y580849D01*
X674266Y580765D01*
X674263Y580758D01*
X674259Y580755D01*
X674251Y580738D01*
X674185Y580618D01*
X673777Y579632D01*
X671508Y577363D01*
X668544Y576135D01*
X652256Y576135D01*
G37*
%LPD*%
%LPC*%
G36*
X652256Y601535D02*
X652256Y601535D01*
X649292Y602763D01*
X647023Y605032D01*
X645795Y607996D01*
X645795Y611204D01*
X647023Y614168D01*
X649292Y616437D01*
X652256Y617665D01*
X668544Y617665D01*
X671508Y616437D01*
X673777Y614168D01*
X674185Y613182D01*
X674247Y613082D01*
X674307Y612983D01*
X674312Y612979D01*
X674315Y612973D01*
X674406Y612898D01*
X674494Y612823D01*
X674500Y612820D01*
X674504Y612816D01*
X674613Y612775D01*
X674722Y612731D01*
X674730Y612730D01*
X674734Y612728D01*
X674752Y612727D01*
X674889Y612712D01*
X696896Y612712D01*
X696986Y612727D01*
X697077Y612734D01*
X697106Y612747D01*
X697138Y612752D01*
X697219Y612795D01*
X697303Y612830D01*
X697335Y612856D01*
X697356Y612867D01*
X697378Y612890D01*
X697434Y612935D01*
X707865Y623366D01*
X707918Y623440D01*
X707977Y623510D01*
X707990Y623540D01*
X708008Y623566D01*
X708035Y623653D01*
X708069Y623738D01*
X708074Y623779D01*
X708081Y623801D01*
X708080Y623833D01*
X708088Y623904D01*
X708088Y667368D01*
X708069Y667483D01*
X708052Y667599D01*
X708049Y667605D01*
X708048Y667611D01*
X707994Y667713D01*
X707940Y667818D01*
X707936Y667823D01*
X707933Y667828D01*
X707848Y667908D01*
X707765Y667990D01*
X707758Y667994D01*
X707755Y667998D01*
X707738Y668005D01*
X707618Y668071D01*
X706595Y668495D01*
X704309Y670781D01*
X703071Y673769D01*
X703071Y690211D01*
X704309Y693199D01*
X706595Y695485D01*
X709583Y696723D01*
X712817Y696723D01*
X715805Y695485D01*
X718091Y693199D01*
X719329Y690211D01*
X719329Y673769D01*
X718091Y670781D01*
X715805Y668495D01*
X714782Y668071D01*
X714683Y668010D01*
X714583Y667950D01*
X714578Y667945D01*
X714573Y667942D01*
X714499Y667852D01*
X714423Y667763D01*
X714420Y667757D01*
X714416Y667752D01*
X714375Y667644D01*
X714331Y667535D01*
X714330Y667527D01*
X714328Y667523D01*
X714327Y667504D01*
X714312Y667368D01*
X714312Y621011D01*
X699789Y606488D01*
X674889Y606488D01*
X674774Y606469D01*
X674658Y606452D01*
X674652Y606449D01*
X674646Y606448D01*
X674543Y606394D01*
X674439Y606340D01*
X674434Y606336D01*
X674429Y606333D01*
X674349Y606249D01*
X674266Y606165D01*
X674263Y606158D01*
X674259Y606155D01*
X674251Y606138D01*
X674185Y606018D01*
X673777Y605032D01*
X671508Y602763D01*
X668544Y601535D01*
X652256Y601535D01*
G37*
%LPD*%
%LPC*%
G36*
X684511Y492188D02*
X684511Y492188D01*
X682465Y494234D01*
X674060Y502638D01*
X674044Y502650D01*
X674032Y502666D01*
X673944Y502722D01*
X673861Y502782D01*
X673842Y502788D01*
X673825Y502799D01*
X673724Y502824D01*
X673625Y502854D01*
X673605Y502854D01*
X673586Y502859D01*
X673483Y502851D01*
X673380Y502848D01*
X673361Y502841D01*
X673341Y502840D01*
X673246Y502799D01*
X673149Y502764D01*
X673133Y502751D01*
X673115Y502743D01*
X672984Y502638D01*
X671508Y501163D01*
X668544Y499935D01*
X652256Y499935D01*
X649292Y501163D01*
X647023Y503432D01*
X645795Y506396D01*
X645795Y509604D01*
X647023Y512568D01*
X649292Y514837D01*
X652256Y516065D01*
X668544Y516065D01*
X671508Y514837D01*
X673777Y512568D01*
X674316Y511268D01*
X674350Y511212D01*
X674376Y511152D01*
X674428Y511087D01*
X674445Y511059D01*
X674460Y511046D01*
X674481Y511021D01*
X686866Y498635D01*
X686940Y498582D01*
X687010Y498523D01*
X687040Y498510D01*
X687066Y498492D01*
X687153Y498465D01*
X687238Y498431D01*
X687279Y498426D01*
X687301Y498419D01*
X687333Y498420D01*
X687404Y498412D01*
X722296Y498412D01*
X722386Y498427D01*
X722477Y498434D01*
X722506Y498447D01*
X722538Y498452D01*
X722619Y498495D01*
X722703Y498530D01*
X722735Y498556D01*
X722756Y498567D01*
X722778Y498590D01*
X722834Y498635D01*
X729935Y505736D01*
X729946Y505752D01*
X729962Y505765D01*
X730018Y505852D01*
X730078Y505936D01*
X730084Y505955D01*
X730095Y505972D01*
X730120Y506072D01*
X730151Y506171D01*
X730150Y506191D01*
X730155Y506210D01*
X730147Y506313D01*
X730144Y506417D01*
X730137Y506436D01*
X730136Y506455D01*
X730095Y506550D01*
X730060Y506648D01*
X730047Y506663D01*
X730040Y506682D01*
X729935Y506813D01*
X728847Y507900D01*
X727455Y511261D01*
X727455Y530139D01*
X728847Y533500D01*
X731420Y536073D01*
X734781Y537465D01*
X738419Y537465D01*
X741780Y536073D01*
X744353Y533500D01*
X745745Y530139D01*
X745745Y511261D01*
X744353Y507900D01*
X741780Y505327D01*
X738419Y503935D01*
X737252Y503935D01*
X737162Y503921D01*
X737071Y503913D01*
X737041Y503901D01*
X737009Y503896D01*
X736929Y503853D01*
X736845Y503817D01*
X736813Y503791D01*
X736792Y503780D01*
X736770Y503757D01*
X736714Y503712D01*
X725189Y492188D01*
X684511Y492188D01*
G37*
%LPD*%
%LPC*%
G36*
X699221Y448055D02*
X699221Y448055D01*
X695860Y449447D01*
X693287Y452020D01*
X691895Y455381D01*
X691895Y459019D01*
X693287Y462380D01*
X695860Y464953D01*
X699221Y466345D01*
X704787Y466345D01*
X704806Y466348D01*
X704826Y466346D01*
X704927Y466368D01*
X705029Y466384D01*
X705047Y466394D01*
X705066Y466398D01*
X705155Y466451D01*
X705247Y466500D01*
X705260Y466514D01*
X705277Y466524D01*
X705345Y466603D01*
X705416Y466678D01*
X705424Y466696D01*
X705437Y466711D01*
X705476Y466807D01*
X705520Y466901D01*
X705522Y466921D01*
X705529Y466939D01*
X705548Y467106D01*
X705548Y468296D01*
X705533Y468386D01*
X705526Y468477D01*
X705513Y468506D01*
X705508Y468538D01*
X705465Y468619D01*
X705430Y468703D01*
X705404Y468735D01*
X705393Y468756D01*
X705370Y468778D01*
X705325Y468834D01*
X694894Y479265D01*
X694820Y479318D01*
X694750Y479377D01*
X694720Y479390D01*
X694694Y479408D01*
X694607Y479435D01*
X694522Y479469D01*
X694481Y479474D01*
X694459Y479481D01*
X694427Y479480D01*
X694356Y479488D01*
X674889Y479488D01*
X674774Y479469D01*
X674658Y479452D01*
X674652Y479449D01*
X674646Y479448D01*
X674543Y479394D01*
X674439Y479340D01*
X674434Y479336D01*
X674429Y479333D01*
X674349Y479249D01*
X674266Y479165D01*
X674263Y479158D01*
X674259Y479155D01*
X674251Y479138D01*
X674185Y479018D01*
X673777Y478032D01*
X671508Y475763D01*
X668544Y474535D01*
X652256Y474535D01*
X649292Y475763D01*
X647023Y478032D01*
X645795Y480996D01*
X645795Y484204D01*
X647023Y487168D01*
X649292Y489437D01*
X652256Y490665D01*
X668544Y490665D01*
X671508Y489437D01*
X673777Y487168D01*
X674185Y486182D01*
X674247Y486082D01*
X674307Y485983D01*
X674312Y485979D01*
X674315Y485973D01*
X674406Y485898D01*
X674494Y485823D01*
X674500Y485820D01*
X674504Y485816D01*
X674613Y485775D01*
X674722Y485731D01*
X674730Y485730D01*
X674734Y485728D01*
X674752Y485727D01*
X674889Y485712D01*
X697249Y485712D01*
X711772Y471189D01*
X711772Y467106D01*
X711775Y467086D01*
X711773Y467067D01*
X711795Y466965D01*
X711812Y466863D01*
X711821Y466846D01*
X711826Y466826D01*
X711879Y466737D01*
X711927Y466646D01*
X711941Y466632D01*
X711952Y466615D01*
X712030Y466548D01*
X712105Y466476D01*
X712123Y466468D01*
X712139Y466455D01*
X712235Y466416D01*
X712328Y466373D01*
X712348Y466371D01*
X712367Y466363D01*
X712533Y466345D01*
X718099Y466345D01*
X721460Y464953D01*
X724033Y462380D01*
X725425Y459019D01*
X725425Y455381D01*
X724033Y452020D01*
X721460Y449447D01*
X718099Y448055D01*
X699221Y448055D01*
G37*
%LPD*%
%LPC*%
G36*
X709381Y503935D02*
X709381Y503935D01*
X706020Y505327D01*
X703447Y507900D01*
X702055Y511261D01*
X702055Y516827D01*
X702052Y516846D01*
X702054Y516866D01*
X702032Y516967D01*
X702016Y517069D01*
X702006Y517087D01*
X702002Y517106D01*
X701949Y517195D01*
X701900Y517287D01*
X701886Y517300D01*
X701876Y517317D01*
X701797Y517385D01*
X701722Y517456D01*
X701704Y517464D01*
X701689Y517477D01*
X701593Y517516D01*
X701499Y517560D01*
X701479Y517562D01*
X701461Y517569D01*
X701294Y517588D01*
X671811Y517588D01*
X669765Y519634D01*
X664286Y525112D01*
X664212Y525165D01*
X664143Y525225D01*
X664113Y525237D01*
X664087Y525256D01*
X664000Y525283D01*
X663915Y525317D01*
X663874Y525321D01*
X663852Y525328D01*
X663819Y525327D01*
X663748Y525335D01*
X652256Y525335D01*
X649292Y526563D01*
X647023Y528832D01*
X645795Y531796D01*
X645795Y535004D01*
X647023Y537968D01*
X649292Y540237D01*
X652256Y541465D01*
X668544Y541465D01*
X671508Y540237D01*
X673777Y537968D01*
X675005Y535004D01*
X675005Y531796D01*
X673777Y528832D01*
X672112Y527166D01*
X672100Y527150D01*
X672084Y527138D01*
X672028Y527050D01*
X671968Y526967D01*
X671962Y526948D01*
X671951Y526931D01*
X671926Y526830D01*
X671896Y526732D01*
X671896Y526712D01*
X671891Y526692D01*
X671899Y526589D01*
X671902Y526486D01*
X671909Y526467D01*
X671910Y526447D01*
X671951Y526352D01*
X671986Y526255D01*
X671999Y526239D01*
X672007Y526221D01*
X672112Y526090D01*
X674166Y524035D01*
X674240Y523982D01*
X674310Y523923D01*
X674340Y523911D01*
X674366Y523892D01*
X674453Y523865D01*
X674538Y523831D01*
X674579Y523826D01*
X674601Y523819D01*
X674633Y523820D01*
X674704Y523812D01*
X701294Y523812D01*
X701314Y523815D01*
X701333Y523813D01*
X701435Y523835D01*
X701537Y523852D01*
X701554Y523861D01*
X701574Y523866D01*
X701663Y523919D01*
X701754Y523967D01*
X701768Y523981D01*
X701785Y523992D01*
X701852Y524070D01*
X701924Y524145D01*
X701932Y524163D01*
X701945Y524179D01*
X701984Y524275D01*
X702027Y524368D01*
X702029Y524388D01*
X702037Y524407D01*
X702055Y524573D01*
X702055Y530139D01*
X703447Y533500D01*
X706020Y536073D01*
X709381Y537465D01*
X713019Y537465D01*
X716380Y536073D01*
X718953Y533500D01*
X720345Y530139D01*
X720345Y511261D01*
X718953Y507900D01*
X716380Y505327D01*
X713019Y503935D01*
X709381Y503935D01*
G37*
%LPD*%
%LPC*%
G36*
X699221Y422655D02*
X699221Y422655D01*
X695860Y424047D01*
X693287Y426620D01*
X691895Y429981D01*
X691895Y433688D01*
X691881Y433778D01*
X691873Y433869D01*
X691861Y433899D01*
X691856Y433931D01*
X691813Y434012D01*
X691777Y434095D01*
X691751Y434128D01*
X691740Y434148D01*
X691717Y434170D01*
X691672Y434226D01*
X674060Y451838D01*
X674044Y451850D01*
X674032Y451866D01*
X673944Y451922D01*
X673860Y451982D01*
X673842Y451988D01*
X673825Y451999D01*
X673724Y452024D01*
X673625Y452054D01*
X673605Y452054D01*
X673586Y452059D01*
X673483Y452051D01*
X673380Y452048D01*
X673361Y452041D01*
X673341Y452040D01*
X673246Y451999D01*
X673149Y451964D01*
X673133Y451951D01*
X673115Y451943D01*
X672984Y451838D01*
X671508Y450363D01*
X668544Y449135D01*
X652256Y449135D01*
X649292Y450363D01*
X647023Y452632D01*
X645795Y455596D01*
X645795Y458804D01*
X647023Y461768D01*
X649292Y464037D01*
X652256Y465265D01*
X668544Y465265D01*
X671508Y464037D01*
X673777Y461768D01*
X674316Y460468D01*
X674350Y460412D01*
X674376Y460352D01*
X674428Y460287D01*
X674445Y460259D01*
X674460Y460246D01*
X674481Y460221D01*
X694997Y439704D01*
X695091Y439636D01*
X695186Y439566D01*
X695192Y439564D01*
X695197Y439560D01*
X695308Y439526D01*
X695420Y439490D01*
X695426Y439490D01*
X695432Y439488D01*
X695549Y439491D01*
X695666Y439492D01*
X695673Y439494D01*
X695678Y439494D01*
X695696Y439501D01*
X695827Y439539D01*
X699221Y440945D01*
X718099Y440945D01*
X721460Y439553D01*
X724033Y436980D01*
X725425Y433619D01*
X725425Y429981D01*
X724033Y426620D01*
X721460Y424047D01*
X718099Y422655D01*
X699221Y422655D01*
G37*
%LPD*%
%LPC*%
G36*
X447761Y498855D02*
X447761Y498855D01*
X444400Y500247D01*
X441827Y502820D01*
X440435Y506181D01*
X440435Y509819D01*
X441827Y513180D01*
X444400Y515753D01*
X447761Y517145D01*
X466639Y517145D01*
X470000Y515753D01*
X472573Y513180D01*
X473234Y511582D01*
X473296Y511483D01*
X473356Y511383D01*
X473361Y511378D01*
X473364Y511373D01*
X473454Y511299D01*
X473543Y511223D01*
X473549Y511220D01*
X473553Y511216D01*
X473662Y511175D01*
X473771Y511131D01*
X473779Y511130D01*
X473783Y511128D01*
X473801Y511127D01*
X473938Y511112D01*
X493511Y511112D01*
X493626Y511131D01*
X493742Y511148D01*
X493748Y511151D01*
X493754Y511152D01*
X493857Y511206D01*
X493961Y511260D01*
X493966Y511264D01*
X493971Y511267D01*
X494051Y511351D01*
X494134Y511435D01*
X494137Y511442D01*
X494141Y511445D01*
X494149Y511462D01*
X494215Y511582D01*
X494623Y512568D01*
X496892Y514837D01*
X499856Y516065D01*
X516144Y516065D01*
X519108Y514837D01*
X521377Y512568D01*
X522605Y509604D01*
X522605Y506396D01*
X521377Y503432D01*
X519108Y501163D01*
X516144Y499935D01*
X499856Y499935D01*
X496892Y501163D01*
X494623Y503432D01*
X494215Y504418D01*
X494153Y504518D01*
X494093Y504617D01*
X494088Y504621D01*
X494085Y504627D01*
X493994Y504702D01*
X493906Y504777D01*
X493900Y504780D01*
X493896Y504784D01*
X493787Y504825D01*
X493678Y504869D01*
X493670Y504870D01*
X493666Y504872D01*
X493648Y504873D01*
X493511Y504888D01*
X473938Y504888D01*
X473823Y504869D01*
X473707Y504852D01*
X473701Y504849D01*
X473695Y504848D01*
X473592Y504794D01*
X473488Y504740D01*
X473483Y504736D01*
X473478Y504733D01*
X473398Y504649D01*
X473315Y504565D01*
X473312Y504558D01*
X473308Y504555D01*
X473300Y504538D01*
X473234Y504418D01*
X472573Y502820D01*
X470000Y500247D01*
X466639Y498855D01*
X447761Y498855D01*
G37*
%LPD*%
%LPC*%
G36*
X447761Y473455D02*
X447761Y473455D01*
X444400Y474847D01*
X441827Y477420D01*
X440435Y480781D01*
X440435Y484419D01*
X441827Y487780D01*
X444400Y490353D01*
X447761Y491745D01*
X466639Y491745D01*
X470000Y490353D01*
X472573Y487780D01*
X473234Y486182D01*
X473296Y486083D01*
X473356Y485983D01*
X473361Y485978D01*
X473364Y485973D01*
X473454Y485899D01*
X473543Y485823D01*
X473549Y485820D01*
X473553Y485816D01*
X473662Y485775D01*
X473771Y485731D01*
X473779Y485730D01*
X473783Y485728D01*
X473801Y485727D01*
X473938Y485712D01*
X493511Y485712D01*
X493626Y485731D01*
X493742Y485748D01*
X493748Y485751D01*
X493754Y485752D01*
X493857Y485806D01*
X493961Y485860D01*
X493966Y485864D01*
X493971Y485867D01*
X494051Y485951D01*
X494134Y486035D01*
X494137Y486042D01*
X494141Y486045D01*
X494149Y486062D01*
X494215Y486182D01*
X494623Y487168D01*
X496892Y489437D01*
X499856Y490665D01*
X516144Y490665D01*
X519108Y489437D01*
X521377Y487168D01*
X522605Y484204D01*
X522605Y480996D01*
X521377Y478032D01*
X519108Y475763D01*
X516144Y474535D01*
X499856Y474535D01*
X496892Y475763D01*
X494623Y478032D01*
X494215Y479018D01*
X494153Y479118D01*
X494093Y479217D01*
X494088Y479221D01*
X494085Y479227D01*
X493994Y479302D01*
X493906Y479377D01*
X493900Y479380D01*
X493896Y479384D01*
X493787Y479425D01*
X493678Y479469D01*
X493670Y479470D01*
X493666Y479472D01*
X493648Y479473D01*
X493511Y479488D01*
X473938Y479488D01*
X473823Y479469D01*
X473707Y479452D01*
X473701Y479449D01*
X473695Y479448D01*
X473592Y479394D01*
X473488Y479340D01*
X473483Y479336D01*
X473478Y479333D01*
X473398Y479249D01*
X473315Y479165D01*
X473312Y479158D01*
X473308Y479155D01*
X473300Y479138D01*
X473234Y479018D01*
X472573Y477420D01*
X470000Y474847D01*
X466639Y473455D01*
X447761Y473455D01*
G37*
%LPD*%
%LPC*%
G36*
X415682Y320122D02*
X415682Y320122D01*
X411831Y321717D01*
X408883Y324665D01*
X407288Y328516D01*
X407288Y332684D01*
X408883Y336535D01*
X411831Y339483D01*
X415682Y341078D01*
X437758Y341078D01*
X441609Y339483D01*
X444557Y336535D01*
X446152Y332684D01*
X446152Y328516D01*
X444557Y324665D01*
X441609Y321717D01*
X437758Y320122D01*
X415682Y320122D01*
G37*
%LPD*%
%LPC*%
G36*
X699221Y371855D02*
X699221Y371855D01*
X695860Y373247D01*
X693287Y375820D01*
X691895Y379181D01*
X691895Y382819D01*
X693287Y386180D01*
X695860Y388753D01*
X699221Y390145D01*
X718099Y390145D01*
X721460Y388753D01*
X724033Y386180D01*
X725425Y382819D01*
X725425Y379181D01*
X724033Y375820D01*
X721460Y373247D01*
X718099Y371855D01*
X699221Y371855D01*
G37*
%LPD*%
%LPC*%
G36*
X785581Y503935D02*
X785581Y503935D01*
X782220Y505327D01*
X779647Y507900D01*
X778255Y511261D01*
X778255Y530139D01*
X779647Y533500D01*
X782220Y536073D01*
X785581Y537465D01*
X789219Y537465D01*
X792580Y536073D01*
X795153Y533500D01*
X796545Y530139D01*
X796545Y511261D01*
X795153Y507900D01*
X792580Y505327D01*
X789219Y503935D01*
X785581Y503935D01*
G37*
%LPD*%
%LPC*%
G36*
X447761Y448055D02*
X447761Y448055D01*
X444400Y449447D01*
X441827Y452020D01*
X440435Y455381D01*
X440435Y459019D01*
X441827Y462380D01*
X444400Y464953D01*
X447761Y466345D01*
X466639Y466345D01*
X470000Y464953D01*
X472573Y462380D01*
X473965Y459019D01*
X473965Y455381D01*
X472573Y452020D01*
X470000Y449447D01*
X466639Y448055D01*
X447761Y448055D01*
G37*
%LPD*%
%LPC*%
G36*
X447761Y549655D02*
X447761Y549655D01*
X444400Y551047D01*
X441827Y553620D01*
X440435Y556981D01*
X440435Y560619D01*
X441827Y563980D01*
X444400Y566553D01*
X447761Y567945D01*
X466639Y567945D01*
X470000Y566553D01*
X472573Y563980D01*
X473965Y560619D01*
X473965Y556981D01*
X472573Y553620D01*
X470000Y551047D01*
X466639Y549655D01*
X447761Y549655D01*
G37*
%LPD*%
%LPC*%
G36*
X447761Y575055D02*
X447761Y575055D01*
X444400Y576447D01*
X441827Y579020D01*
X440435Y582381D01*
X440435Y586019D01*
X441827Y589380D01*
X444400Y591953D01*
X447761Y593345D01*
X466639Y593345D01*
X470000Y591953D01*
X472573Y589380D01*
X473965Y586019D01*
X473965Y582381D01*
X472573Y579020D01*
X470000Y576447D01*
X466639Y575055D01*
X447761Y575055D01*
G37*
%LPD*%
%LPC*%
G36*
X447761Y524255D02*
X447761Y524255D01*
X444400Y525647D01*
X441827Y528220D01*
X440435Y531581D01*
X440435Y535219D01*
X441827Y538580D01*
X444400Y541153D01*
X447761Y542545D01*
X466639Y542545D01*
X470000Y541153D01*
X472573Y538580D01*
X473965Y535219D01*
X473965Y531581D01*
X472573Y528220D01*
X470000Y525647D01*
X466639Y524255D01*
X447761Y524255D01*
G37*
%LPD*%
%LPC*%
G36*
X811183Y667257D02*
X811183Y667257D01*
X808195Y668495D01*
X805909Y670781D01*
X804671Y673769D01*
X804671Y690211D01*
X805909Y693199D01*
X808195Y695485D01*
X811183Y696723D01*
X814417Y696723D01*
X817405Y695485D01*
X819691Y693199D01*
X820929Y690211D01*
X820929Y673769D01*
X819691Y670781D01*
X817405Y668495D01*
X814417Y667257D01*
X811183Y667257D01*
G37*
%LPD*%
%LPC*%
G36*
X785783Y667257D02*
X785783Y667257D01*
X782795Y668495D01*
X780509Y670781D01*
X779271Y673769D01*
X779271Y690211D01*
X780509Y693199D01*
X782795Y695485D01*
X785783Y696723D01*
X789017Y696723D01*
X792005Y695485D01*
X794291Y693199D01*
X795529Y690211D01*
X795529Y673769D01*
X794291Y670781D01*
X792005Y668495D01*
X789017Y667257D01*
X785783Y667257D01*
G37*
%LPD*%
%LPC*%
G36*
X499856Y576135D02*
X499856Y576135D01*
X496892Y577363D01*
X494623Y579632D01*
X493395Y582596D01*
X493395Y585804D01*
X494623Y588768D01*
X496892Y591037D01*
X499856Y592265D01*
X516144Y592265D01*
X519108Y591037D01*
X521377Y588768D01*
X522605Y585804D01*
X522605Y582596D01*
X521377Y579632D01*
X519108Y577363D01*
X516144Y576135D01*
X499856Y576135D01*
G37*
%LPD*%
%LPC*%
G36*
X499856Y601535D02*
X499856Y601535D01*
X496892Y602763D01*
X494623Y605032D01*
X493395Y607996D01*
X493395Y611204D01*
X494623Y614168D01*
X496892Y616437D01*
X499856Y617665D01*
X516144Y617665D01*
X519108Y616437D01*
X521377Y614168D01*
X522605Y611204D01*
X522605Y607996D01*
X521377Y605032D01*
X519108Y602763D01*
X516144Y601535D01*
X499856Y601535D01*
G37*
%LPD*%
%LPC*%
G36*
X499856Y550735D02*
X499856Y550735D01*
X496892Y551963D01*
X494623Y554232D01*
X493395Y557196D01*
X493395Y560404D01*
X494623Y563368D01*
X496892Y565637D01*
X499856Y566865D01*
X516144Y566865D01*
X519108Y565637D01*
X521377Y563368D01*
X522605Y560404D01*
X522605Y557196D01*
X521377Y554232D01*
X519108Y551963D01*
X516144Y550735D01*
X499856Y550735D01*
G37*
%LPD*%
%LPC*%
G36*
X652256Y347535D02*
X652256Y347535D01*
X649292Y348763D01*
X647023Y351032D01*
X645795Y353996D01*
X645795Y357204D01*
X647023Y360168D01*
X649292Y362437D01*
X652256Y363665D01*
X668544Y363665D01*
X671508Y362437D01*
X673777Y360168D01*
X675005Y357204D01*
X675005Y353996D01*
X673777Y351032D01*
X671508Y348763D01*
X668544Y347535D01*
X652256Y347535D01*
G37*
%LPD*%
%LPC*%
G36*
X652256Y322135D02*
X652256Y322135D01*
X649292Y323363D01*
X647023Y325632D01*
X645795Y328596D01*
X645795Y331804D01*
X647023Y334768D01*
X649292Y337037D01*
X652256Y338265D01*
X668544Y338265D01*
X671508Y337037D01*
X673777Y334768D01*
X675005Y331804D01*
X675005Y328596D01*
X673777Y325632D01*
X671508Y323363D01*
X668544Y322135D01*
X652256Y322135D01*
G37*
%LPD*%
%LPC*%
G36*
X499856Y525335D02*
X499856Y525335D01*
X496892Y526563D01*
X494623Y528832D01*
X493395Y531796D01*
X493395Y535004D01*
X494623Y537968D01*
X496892Y540237D01*
X499856Y541465D01*
X516144Y541465D01*
X519108Y540237D01*
X521377Y537968D01*
X522605Y535004D01*
X522605Y531796D01*
X521377Y528832D01*
X519108Y526563D01*
X516144Y525335D01*
X499856Y525335D01*
G37*
%LPD*%
%LPC*%
G36*
X499856Y372935D02*
X499856Y372935D01*
X496892Y374163D01*
X494623Y376432D01*
X493395Y379396D01*
X493395Y382604D01*
X494623Y385568D01*
X496892Y387837D01*
X499856Y389065D01*
X516144Y389065D01*
X519108Y387837D01*
X521377Y385568D01*
X522605Y382604D01*
X522605Y379396D01*
X521377Y376432D01*
X519108Y374163D01*
X516144Y372935D01*
X499856Y372935D01*
G37*
%LPD*%
%LPC*%
G36*
X652256Y372935D02*
X652256Y372935D01*
X649292Y374163D01*
X647023Y376432D01*
X645795Y379396D01*
X645795Y382604D01*
X647023Y385568D01*
X649292Y387837D01*
X652256Y389065D01*
X668544Y389065D01*
X671508Y387837D01*
X673777Y385568D01*
X675005Y382604D01*
X675005Y379396D01*
X673777Y376432D01*
X671508Y374163D01*
X668544Y372935D01*
X652256Y372935D01*
G37*
%LPD*%
%LPC*%
G36*
X499856Y347535D02*
X499856Y347535D01*
X496892Y348763D01*
X494623Y351032D01*
X493395Y353996D01*
X493395Y357204D01*
X494623Y360168D01*
X496892Y362437D01*
X499856Y363665D01*
X516144Y363665D01*
X519108Y362437D01*
X521377Y360168D01*
X522605Y357204D01*
X522605Y353996D01*
X521377Y351032D01*
X519108Y348763D01*
X516144Y347535D01*
X499856Y347535D01*
G37*
%LPD*%
%LPC*%
G36*
X652256Y677735D02*
X652256Y677735D01*
X649292Y678963D01*
X647023Y681232D01*
X645795Y684196D01*
X645795Y687404D01*
X647023Y690368D01*
X649292Y692637D01*
X652256Y693865D01*
X668544Y693865D01*
X671508Y692637D01*
X673777Y690368D01*
X675005Y687404D01*
X675005Y684196D01*
X673777Y681232D01*
X671508Y678963D01*
X668544Y677735D01*
X652256Y677735D01*
G37*
%LPD*%
%LPC*%
G36*
X499856Y626935D02*
X499856Y626935D01*
X496892Y628163D01*
X494623Y630432D01*
X493395Y633396D01*
X493395Y636604D01*
X494623Y639568D01*
X496892Y641837D01*
X499856Y643065D01*
X516144Y643065D01*
X519108Y641837D01*
X521377Y639568D01*
X522605Y636604D01*
X522605Y633396D01*
X521377Y630432D01*
X519108Y628163D01*
X516144Y626935D01*
X499856Y626935D01*
G37*
%LPD*%
%LPC*%
G36*
X652256Y398335D02*
X652256Y398335D01*
X649292Y399563D01*
X647023Y401832D01*
X645795Y404796D01*
X645795Y408004D01*
X647023Y410968D01*
X649292Y413237D01*
X652256Y414465D01*
X668544Y414465D01*
X671508Y413237D01*
X673777Y410968D01*
X675005Y408004D01*
X675005Y404796D01*
X673777Y401832D01*
X671508Y399563D01*
X668544Y398335D01*
X652256Y398335D01*
G37*
%LPD*%
%LPC*%
G36*
X499856Y423735D02*
X499856Y423735D01*
X496892Y424963D01*
X494623Y427232D01*
X493395Y430196D01*
X493395Y433404D01*
X494623Y436368D01*
X496892Y438637D01*
X499856Y439865D01*
X516144Y439865D01*
X519108Y438637D01*
X521377Y436368D01*
X522605Y433404D01*
X522605Y430196D01*
X521377Y427232D01*
X519108Y424963D01*
X516144Y423735D01*
X499856Y423735D01*
G37*
%LPD*%
%LPC*%
G36*
X499856Y449135D02*
X499856Y449135D01*
X496892Y450363D01*
X494623Y452632D01*
X493395Y455596D01*
X493395Y458804D01*
X494623Y461768D01*
X496892Y464037D01*
X499856Y465265D01*
X516144Y465265D01*
X519108Y464037D01*
X521377Y461768D01*
X522605Y458804D01*
X522605Y455596D01*
X521377Y452632D01*
X519108Y450363D01*
X516144Y449135D01*
X499856Y449135D01*
G37*
%LPD*%
%LPC*%
G36*
X652256Y626935D02*
X652256Y626935D01*
X649292Y628163D01*
X647023Y630432D01*
X645795Y633396D01*
X645795Y636604D01*
X647023Y639568D01*
X649292Y641837D01*
X652256Y643065D01*
X668544Y643065D01*
X671508Y641837D01*
X673777Y639568D01*
X675005Y636604D01*
X675005Y633396D01*
X673777Y630432D01*
X671508Y628163D01*
X668544Y626935D01*
X652256Y626935D01*
G37*
%LPD*%
%LPC*%
G36*
X499856Y652335D02*
X499856Y652335D01*
X496892Y653563D01*
X494623Y655832D01*
X493395Y658796D01*
X493395Y662004D01*
X494623Y664968D01*
X496892Y667237D01*
X499856Y668465D01*
X516144Y668465D01*
X519108Y667237D01*
X521377Y664968D01*
X522605Y662004D01*
X522605Y658796D01*
X521377Y655832D01*
X519108Y653563D01*
X516144Y652335D01*
X499856Y652335D01*
G37*
%LPD*%
%LPC*%
G36*
X652256Y652335D02*
X652256Y652335D01*
X649292Y653563D01*
X647023Y655832D01*
X645795Y658796D01*
X645795Y662004D01*
X647023Y664968D01*
X649292Y667237D01*
X652256Y668465D01*
X668544Y668465D01*
X671508Y667237D01*
X673777Y664968D01*
X675005Y662004D01*
X675005Y658796D01*
X673777Y655832D01*
X671508Y653563D01*
X668544Y652335D01*
X652256Y652335D01*
G37*
%LPD*%
%LPC*%
G36*
X499856Y677735D02*
X499856Y677735D01*
X496892Y678963D01*
X494623Y681232D01*
X493395Y684196D01*
X493395Y687404D01*
X494623Y690368D01*
X496892Y692637D01*
X499856Y693865D01*
X516144Y693865D01*
X519108Y692637D01*
X521377Y690368D01*
X522605Y687404D01*
X522605Y684196D01*
X521377Y681232D01*
X519108Y678963D01*
X516144Y677735D01*
X499856Y677735D01*
G37*
%LPD*%
%LPC*%
G36*
X785293Y446607D02*
X785293Y446607D01*
X781400Y448220D01*
X778420Y451200D01*
X776807Y455093D01*
X776807Y459307D01*
X778420Y463200D01*
X781400Y466180D01*
X785293Y467793D01*
X789507Y467793D01*
X793400Y466180D01*
X796380Y463200D01*
X797993Y459307D01*
X797993Y455093D01*
X796380Y451200D01*
X793400Y448220D01*
X789507Y446607D01*
X785293Y446607D01*
G37*
%LPD*%
%LPC*%
G36*
X403023Y670127D02*
X403023Y670127D01*
X399130Y671740D01*
X396150Y674720D01*
X394537Y678613D01*
X394537Y682827D01*
X396150Y686720D01*
X399130Y689700D01*
X403023Y691313D01*
X407237Y691313D01*
X411130Y689700D01*
X414110Y686720D01*
X415723Y682827D01*
X415723Y678613D01*
X414110Y674720D01*
X411130Y671740D01*
X407237Y670127D01*
X403023Y670127D01*
G37*
%LPD*%
%LPC*%
G36*
X404293Y433907D02*
X404293Y433907D01*
X400400Y435520D01*
X397420Y438500D01*
X395807Y442393D01*
X395807Y446607D01*
X397420Y450500D01*
X400400Y453480D01*
X404293Y455093D01*
X408507Y455093D01*
X412400Y453480D01*
X415380Y450500D01*
X416993Y446607D01*
X416993Y442393D01*
X415380Y438500D01*
X412400Y435520D01*
X408507Y433907D01*
X404293Y433907D01*
G37*
%LPD*%
%LPC*%
G36*
X582093Y670127D02*
X582093Y670127D01*
X578200Y671740D01*
X575220Y674720D01*
X573607Y678613D01*
X573607Y682827D01*
X575220Y686720D01*
X578200Y689700D01*
X582093Y691313D01*
X586307Y691313D01*
X590200Y689700D01*
X593180Y686720D01*
X594793Y682827D01*
X594793Y678613D01*
X593180Y674720D01*
X590200Y671740D01*
X586307Y670127D01*
X582093Y670127D01*
G37*
%LPD*%
%LPC*%
G36*
X582596Y334835D02*
X582596Y334835D01*
X579632Y336063D01*
X577363Y338332D01*
X576135Y341296D01*
X576135Y344504D01*
X577363Y347468D01*
X579632Y349737D01*
X582596Y350965D01*
X585804Y350965D01*
X588768Y349737D01*
X591037Y347468D01*
X592265Y344504D01*
X592265Y341296D01*
X591037Y338332D01*
X588768Y336063D01*
X585804Y334835D01*
X582596Y334835D01*
G37*
%LPD*%
%LPC*%
G36*
X607996Y334835D02*
X607996Y334835D01*
X605032Y336063D01*
X602763Y338332D01*
X601535Y341296D01*
X601535Y344504D01*
X602763Y347468D01*
X605032Y349737D01*
X607996Y350965D01*
X611204Y350965D01*
X614168Y349737D01*
X616437Y347468D01*
X617665Y344504D01*
X617665Y341296D01*
X616437Y338332D01*
X614168Y336063D01*
X611204Y334835D01*
X607996Y334835D01*
G37*
%LPD*%
%LPC*%
G36*
X557196Y334835D02*
X557196Y334835D01*
X554232Y336063D01*
X551963Y338332D01*
X550735Y341296D01*
X550735Y344504D01*
X551963Y347468D01*
X554232Y349737D01*
X557196Y350965D01*
X560404Y350965D01*
X563368Y349737D01*
X565637Y347468D01*
X566865Y344504D01*
X566865Y341296D01*
X565637Y338332D01*
X563368Y336063D01*
X560404Y334835D01*
X557196Y334835D01*
G37*
%LPD*%
%LPC*%
G36*
X763523Y522223D02*
X763523Y522223D01*
X763523Y538366D01*
X764379Y538231D01*
X765900Y537736D01*
X767325Y537010D01*
X768619Y536070D01*
X769750Y534939D01*
X770690Y533645D01*
X771416Y532220D01*
X771911Y530699D01*
X772161Y529120D01*
X772161Y522223D01*
X763523Y522223D01*
G37*
%LPD*%
%LPC*%
G36*
X710183Y407923D02*
X710183Y407923D01*
X710183Y416561D01*
X717080Y416561D01*
X718659Y416311D01*
X720180Y415816D01*
X721605Y415090D01*
X722899Y414150D01*
X724030Y413019D01*
X724970Y411725D01*
X725696Y410300D01*
X726191Y408779D01*
X726326Y407923D01*
X710183Y407923D01*
G37*
%LPD*%
%LPC*%
G36*
X458723Y433323D02*
X458723Y433323D01*
X458723Y441961D01*
X465620Y441961D01*
X467199Y441711D01*
X468720Y441216D01*
X470145Y440490D01*
X471439Y439550D01*
X472570Y438419D01*
X473510Y437125D01*
X474236Y435700D01*
X474731Y434179D01*
X474866Y433323D01*
X458723Y433323D01*
G37*
%LPD*%
%LPC*%
G36*
X690994Y407923D02*
X690994Y407923D01*
X691129Y408779D01*
X691624Y410300D01*
X692350Y411725D01*
X693290Y413019D01*
X694421Y414150D01*
X695715Y415090D01*
X697140Y415816D01*
X698661Y416311D01*
X700240Y416561D01*
X707137Y416561D01*
X707137Y407923D01*
X690994Y407923D01*
G37*
%LPD*%
%LPC*%
G36*
X439534Y433323D02*
X439534Y433323D01*
X439669Y434179D01*
X440164Y435700D01*
X440890Y437125D01*
X441830Y438419D01*
X442961Y439550D01*
X444255Y440490D01*
X445680Y441216D01*
X447201Y441711D01*
X448780Y441961D01*
X455677Y441961D01*
X455677Y433323D01*
X439534Y433323D01*
G37*
%LPD*%
%LPC*%
G36*
X763523Y519177D02*
X763523Y519177D01*
X772161Y519177D01*
X772161Y512280D01*
X771911Y510701D01*
X771416Y509180D01*
X770690Y507755D01*
X769750Y506461D01*
X768619Y505330D01*
X767325Y504390D01*
X765900Y503664D01*
X764379Y503169D01*
X763523Y503034D01*
X763523Y519177D01*
G37*
%LPD*%
%LPC*%
G36*
X458723Y421639D02*
X458723Y421639D01*
X458723Y430277D01*
X474866Y430277D01*
X474731Y429421D01*
X474236Y427900D01*
X473510Y426475D01*
X472570Y425181D01*
X471439Y424050D01*
X470145Y423110D01*
X468720Y422384D01*
X467199Y421889D01*
X465620Y421639D01*
X458723Y421639D01*
G37*
%LPD*%
%LPC*%
G36*
X751839Y522223D02*
X751839Y522223D01*
X751839Y529120D01*
X752089Y530699D01*
X752584Y532220D01*
X753310Y533645D01*
X754250Y534939D01*
X755381Y536070D01*
X756675Y537010D01*
X758100Y537736D01*
X759621Y538231D01*
X760477Y538366D01*
X760477Y522223D01*
X751839Y522223D01*
G37*
%LPD*%
%LPC*%
G36*
X710183Y396239D02*
X710183Y396239D01*
X710183Y404877D01*
X726326Y404877D01*
X726191Y404021D01*
X725696Y402500D01*
X724970Y401075D01*
X724030Y399781D01*
X722899Y398650D01*
X721605Y397710D01*
X720180Y396984D01*
X718659Y396489D01*
X717080Y396239D01*
X710183Y396239D01*
G37*
%LPD*%
%LPC*%
G36*
X448780Y421639D02*
X448780Y421639D01*
X447201Y421889D01*
X445680Y422384D01*
X444255Y423110D01*
X442961Y424050D01*
X441830Y425181D01*
X440890Y426475D01*
X440164Y427900D01*
X439669Y429421D01*
X439534Y430277D01*
X455677Y430277D01*
X455677Y421639D01*
X448780Y421639D01*
G37*
%LPD*%
%LPC*%
G36*
X759621Y503169D02*
X759621Y503169D01*
X758100Y503664D01*
X756675Y504390D01*
X755381Y505330D01*
X754250Y506461D01*
X753310Y507755D01*
X752584Y509180D01*
X752089Y510701D01*
X751839Y512280D01*
X751839Y519177D01*
X760477Y519177D01*
X760477Y503034D01*
X759621Y503169D01*
G37*
%LPD*%
%LPC*%
G36*
X700240Y396239D02*
X700240Y396239D01*
X698661Y396489D01*
X697140Y396984D01*
X695715Y397710D01*
X694421Y398650D01*
X693290Y399781D01*
X692350Y401075D01*
X691624Y402500D01*
X691129Y404021D01*
X690994Y404877D01*
X707137Y404877D01*
X707137Y396239D01*
X700240Y396239D01*
G37*
%LPD*%
%LPC*%
G36*
X763523Y683513D02*
X763523Y683513D01*
X763523Y697615D01*
X764667Y697387D01*
X766332Y696698D01*
X767830Y695697D01*
X769103Y694424D01*
X770104Y692926D01*
X770793Y691261D01*
X771145Y689495D01*
X771145Y683513D01*
X763523Y683513D01*
G37*
%LPD*%
%LPC*%
G36*
X763523Y680467D02*
X763523Y680467D01*
X771145Y680467D01*
X771145Y674485D01*
X770793Y672719D01*
X770104Y671054D01*
X769103Y669556D01*
X767830Y668283D01*
X766332Y667282D01*
X764667Y666593D01*
X763523Y666365D01*
X763523Y680467D01*
G37*
%LPD*%
%LPC*%
G36*
X752855Y683513D02*
X752855Y683513D01*
X752855Y689495D01*
X753207Y691261D01*
X753896Y692926D01*
X754897Y694424D01*
X756170Y695697D01*
X757668Y696698D01*
X759333Y697387D01*
X760477Y697615D01*
X760477Y683513D01*
X752855Y683513D01*
G37*
%LPD*%
%LPC*%
G36*
X759333Y666593D02*
X759333Y666593D01*
X757668Y667282D01*
X756170Y668283D01*
X754897Y669556D01*
X753896Y671054D01*
X753207Y672719D01*
X752855Y674485D01*
X752855Y680467D01*
X760477Y680467D01*
X760477Y666365D01*
X759333Y666593D01*
G37*
%LPD*%
%LPC*%
G36*
X509523Y407923D02*
X509523Y407923D01*
X509523Y415481D01*
X515434Y415481D01*
X517189Y415132D01*
X518841Y414447D01*
X520329Y413453D01*
X521593Y412189D01*
X522587Y410701D01*
X523272Y409049D01*
X523496Y407923D01*
X509523Y407923D01*
G37*
%LPD*%
%LPC*%
G36*
X492504Y407923D02*
X492504Y407923D01*
X492728Y409049D01*
X493413Y410701D01*
X494407Y412189D01*
X495671Y413453D01*
X497159Y414447D01*
X498811Y415132D01*
X500566Y415481D01*
X506477Y415481D01*
X506477Y407923D01*
X492504Y407923D01*
G37*
%LPD*%
%LPC*%
G36*
X509523Y397319D02*
X509523Y397319D01*
X509523Y404877D01*
X523496Y404877D01*
X523272Y403751D01*
X522587Y402099D01*
X521593Y400611D01*
X520329Y399347D01*
X518841Y398353D01*
X517189Y397668D01*
X515434Y397319D01*
X509523Y397319D01*
G37*
%LPD*%
%LPC*%
G36*
X500566Y397319D02*
X500566Y397319D01*
X498811Y397668D01*
X497159Y398353D01*
X495671Y399347D01*
X494407Y400611D01*
X493413Y402099D01*
X492728Y403751D01*
X492504Y404877D01*
X506477Y404877D01*
X506477Y397319D01*
X500566Y397319D01*
G37*
%LPD*%
%LPC*%
G36*
X708659Y406399D02*
X708659Y406399D01*
X708659Y406401D01*
X708661Y406401D01*
X708661Y406399D01*
X708659Y406399D01*
G37*
%LPD*%
%LPC*%
G36*
X507999Y406399D02*
X507999Y406399D01*
X507999Y406401D01*
X508001Y406401D01*
X508001Y406399D01*
X507999Y406399D01*
G37*
%LPD*%
%LPC*%
G36*
X457199Y431799D02*
X457199Y431799D01*
X457199Y431801D01*
X457201Y431801D01*
X457201Y431799D01*
X457199Y431799D01*
G37*
%LPD*%
%LPC*%
G36*
X761999Y520699D02*
X761999Y520699D01*
X761999Y520701D01*
X762001Y520701D01*
X762001Y520699D01*
X761999Y520699D01*
G37*
%LPD*%
%LPC*%
G36*
X761999Y681989D02*
X761999Y681989D01*
X761999Y681991D01*
X762001Y681991D01*
X762001Y681989D01*
X761999Y681989D01*
G37*
%LPD*%
D10*
X838200Y688594D02*
X838200Y675386D01*
X812800Y675386D02*
X812800Y688594D01*
X787400Y688594D02*
X787400Y675386D01*
X762000Y675386D02*
X762000Y688594D01*
X736600Y688594D02*
X736600Y675386D01*
X711200Y675386D02*
X711200Y688594D01*
D11*
X464820Y609600D02*
X449580Y609600D01*
X449580Y584200D02*
X464820Y584200D01*
X464820Y558800D02*
X449580Y558800D01*
X449580Y533400D02*
X464820Y533400D01*
X464820Y508000D02*
X449580Y508000D01*
X449580Y482600D02*
X464820Y482600D01*
X464820Y457200D02*
X449580Y457200D01*
X449580Y431800D02*
X464820Y431800D01*
D12*
X435674Y380600D02*
X417767Y380600D01*
X417767Y330600D02*
X435674Y330600D01*
D11*
X838200Y513080D02*
X838200Y528320D01*
X812800Y528320D02*
X812800Y513080D01*
X787400Y513080D02*
X787400Y528320D01*
X762000Y528320D02*
X762000Y513080D01*
X736600Y513080D02*
X736600Y528320D01*
X711200Y528320D02*
X711200Y513080D01*
X716280Y330200D02*
X701040Y330200D01*
X701040Y355600D02*
X716280Y355600D01*
X716280Y381000D02*
X701040Y381000D01*
X701040Y406400D02*
X716280Y406400D01*
X716280Y431800D02*
X701040Y431800D01*
X701040Y457200D02*
X716280Y457200D01*
D13*
X666940Y330200D02*
X653860Y330200D01*
X653860Y355600D02*
X666940Y355600D01*
X666940Y381000D02*
X653860Y381000D01*
X653860Y406400D02*
X666940Y406400D01*
X666940Y431800D02*
X653860Y431800D01*
X653860Y457200D02*
X666940Y457200D01*
X666940Y482600D02*
X653860Y482600D01*
X653860Y508000D02*
X666940Y508000D01*
X666940Y533400D02*
X653860Y533400D01*
X653860Y558800D02*
X666940Y558800D01*
X666940Y584200D02*
X653860Y584200D01*
X653860Y609600D02*
X666940Y609600D01*
X514540Y330200D02*
X501460Y330200D01*
X501460Y355600D02*
X514540Y355600D01*
X514540Y381000D02*
X501460Y381000D01*
X501460Y533400D02*
X514540Y533400D01*
X514540Y558800D02*
X501460Y558800D01*
X501460Y584200D02*
X514540Y584200D01*
X514540Y609600D02*
X501460Y609600D01*
X501460Y685800D02*
X514540Y685800D01*
X653860Y685800D02*
X666940Y685800D01*
X666940Y660400D02*
X653860Y660400D01*
X653860Y635000D02*
X666940Y635000D01*
X514540Y660400D02*
X501460Y660400D01*
X501460Y635000D02*
X514540Y635000D01*
X514540Y406400D02*
X501460Y406400D01*
D14*
X558800Y342900D03*
X584200Y342900D03*
X609600Y342900D03*
D13*
X514540Y508000D02*
X501460Y508000D01*
X501460Y482600D02*
X514540Y482600D01*
X514540Y457200D02*
X501460Y457200D01*
X501460Y431800D02*
X514540Y431800D01*
D14*
X558800Y317500D03*
X584200Y317500D03*
X609600Y317500D03*
D12*
X803847Y571900D02*
X821754Y571900D01*
X821754Y621900D02*
X803847Y621900D01*
X762400Y364554D02*
X762400Y346647D01*
X812400Y346647D02*
X812400Y364554D01*
D15*
X508000Y482600D02*
X457200Y482600D01*
X457200Y508000D02*
X508000Y508000D01*
X469900Y609600D02*
X457200Y609600D01*
X469900Y609600D02*
X482600Y596900D01*
X596900Y596900D01*
X609600Y584200D01*
X609600Y444500D01*
X622300Y431800D01*
X660400Y431800D01*
X711200Y622300D02*
X711200Y681990D01*
X711200Y622300D02*
X698500Y609600D01*
X660400Y609600D01*
D16*
X457600Y380600D02*
X426720Y380600D01*
X457600Y380600D02*
X469900Y368300D01*
X469900Y342900D01*
X482600Y330200D01*
X508000Y330200D01*
D15*
X660400Y457200D02*
X673100Y457200D01*
X698500Y431800D01*
X708660Y431800D01*
X695960Y482600D02*
X660400Y482600D01*
X695960Y482600D02*
X708660Y469900D01*
X708660Y457200D01*
X673100Y508000D02*
X660400Y508000D01*
X673100Y508000D02*
X685800Y495300D01*
X723900Y495300D01*
X736600Y508000D01*
X736600Y520700D01*
X673100Y520700D02*
X660400Y533400D01*
X673100Y520700D02*
X711200Y520700D01*
D16*
X812800Y520700D02*
X812800Y571900D01*
X838200Y609600D02*
X838200Y520700D01*
X838200Y609600D02*
X825900Y621900D01*
X812800Y621900D01*
X762400Y355600D02*
X708660Y355600D01*
X708660Y330200D02*
X787000Y330200D01*
X812400Y355600D01*
D15*
X736600Y558800D02*
X660400Y558800D01*
X736600Y558800D02*
X749300Y571500D01*
X749300Y647700D02*
X762000Y660400D01*
X825500Y660400D01*
X838200Y673100D01*
X838200Y681990D01*
X749300Y647700D02*
X749300Y571500D01*
X723900Y584200D02*
X660400Y584200D01*
X723900Y584200D02*
X736600Y596900D01*
X736600Y681990D01*
M02*
