G04 EAGLE Gerber RS-274X export*
G75*
%MOMM*%
%FSLAX34Y34*%
%LPD*%
%IN*%
%IPPOS*%
%AMOC8*
5,1,8,0,0,1.08239X$1,22.5*%
G01*
%ADD10C,0.254000*%


D10*
X372110Y298450D02*
X862130Y298450D01*
X862130Y711710D01*
X372110Y711710D01*
X372110Y298450D01*
X405562Y680634D02*
X405496Y680475D01*
X405375Y680354D01*
X405216Y680288D01*
X405044Y680288D01*
X404885Y680354D01*
X404764Y680475D01*
X404698Y680634D01*
X404698Y680806D01*
X404764Y680965D01*
X404885Y681086D01*
X405044Y681152D01*
X405216Y681152D01*
X405375Y681086D01*
X405496Y680965D01*
X405562Y680806D01*
X405562Y680634D01*
X584632Y680634D02*
X584566Y680475D01*
X584445Y680354D01*
X584286Y680288D01*
X584114Y680288D01*
X583955Y680354D01*
X583834Y680475D01*
X583768Y680634D01*
X583768Y680806D01*
X583834Y680965D01*
X583955Y681086D01*
X584114Y681152D01*
X584286Y681152D01*
X584445Y681086D01*
X584566Y680965D01*
X584632Y680806D01*
X584632Y680634D01*
X787832Y457114D02*
X787766Y456955D01*
X787645Y456834D01*
X787486Y456768D01*
X787314Y456768D01*
X787155Y456834D01*
X787034Y456955D01*
X786968Y457114D01*
X786968Y457286D01*
X787034Y457445D01*
X787155Y457566D01*
X787314Y457632D01*
X787486Y457632D01*
X787645Y457566D01*
X787766Y457445D01*
X787832Y457286D01*
X787832Y457114D01*
X406832Y444414D02*
X406766Y444255D01*
X406645Y444134D01*
X406486Y444068D01*
X406314Y444068D01*
X406155Y444134D01*
X406034Y444255D01*
X405968Y444414D01*
X405968Y444586D01*
X406034Y444745D01*
X406155Y444866D01*
X406314Y444932D01*
X406486Y444932D01*
X406645Y444866D01*
X406766Y444745D01*
X406832Y444586D01*
X406832Y444414D01*
M02*
