G04 EAGLE Gerber RS-274X export*
G75*
%MOMM*%
%FSLAX34Y34*%
%LPD*%
%INSoldermask Top*%
%IPPOS*%
%AMOC8*
5,1,8,0,0,1.08239X$1,22.5*%
G01*
%ADD10C,0.289559*%
%ADD11C,1.524000*%
%ADD12C,1.727200*%
%ADD13C,1.993900*%
%ADD14C,1.511200*%
%ADD15C,1.511200*%


D10*
X405130Y680720D03*
X584200Y680720D03*
X787400Y457200D03*
X406400Y444500D03*
D11*
X838200Y675386D02*
X838200Y688594D01*
X812800Y688594D02*
X812800Y675386D01*
X787400Y675386D02*
X787400Y688594D01*
X762000Y688594D02*
X762000Y675386D01*
X736600Y675386D02*
X736600Y688594D01*
X711200Y688594D02*
X711200Y675386D01*
D12*
X464820Y609600D02*
X449580Y609600D01*
X449580Y584200D02*
X464820Y584200D01*
X464820Y558800D02*
X449580Y558800D01*
X449580Y533400D02*
X464820Y533400D01*
X464820Y508000D02*
X449580Y508000D01*
X449580Y482600D02*
X464820Y482600D01*
X464820Y457200D02*
X449580Y457200D01*
X449580Y431800D02*
X464820Y431800D01*
D13*
X435674Y380600D02*
X417767Y380600D01*
X417767Y330600D02*
X435674Y330600D01*
D12*
X838200Y513080D02*
X838200Y528320D01*
X812800Y528320D02*
X812800Y513080D01*
X787400Y513080D02*
X787400Y528320D01*
X762000Y528320D02*
X762000Y513080D01*
X736600Y513080D02*
X736600Y528320D01*
X711200Y528320D02*
X711200Y513080D01*
X716280Y330200D02*
X701040Y330200D01*
X701040Y355600D02*
X716280Y355600D01*
X716280Y381000D02*
X701040Y381000D01*
X701040Y406400D02*
X716280Y406400D01*
X716280Y431800D02*
X701040Y431800D01*
X701040Y457200D02*
X716280Y457200D01*
D14*
X666940Y330200D02*
X653860Y330200D01*
X653860Y355600D02*
X666940Y355600D01*
X666940Y381000D02*
X653860Y381000D01*
X653860Y406400D02*
X666940Y406400D01*
X666940Y431800D02*
X653860Y431800D01*
X653860Y457200D02*
X666940Y457200D01*
X666940Y482600D02*
X653860Y482600D01*
X653860Y508000D02*
X666940Y508000D01*
X666940Y533400D02*
X653860Y533400D01*
X653860Y558800D02*
X666940Y558800D01*
X666940Y584200D02*
X653860Y584200D01*
X653860Y609600D02*
X666940Y609600D01*
X514540Y330200D02*
X501460Y330200D01*
X501460Y355600D02*
X514540Y355600D01*
X514540Y381000D02*
X501460Y381000D01*
X501460Y533400D02*
X514540Y533400D01*
X514540Y558800D02*
X501460Y558800D01*
X501460Y584200D02*
X514540Y584200D01*
X514540Y609600D02*
X501460Y609600D01*
X501460Y685800D02*
X514540Y685800D01*
X653860Y685800D02*
X666940Y685800D01*
X666940Y660400D02*
X653860Y660400D01*
X653860Y635000D02*
X666940Y635000D01*
X514540Y660400D02*
X501460Y660400D01*
X501460Y635000D02*
X514540Y635000D01*
X514540Y406400D02*
X501460Y406400D01*
D15*
X558800Y342900D03*
X584200Y342900D03*
X609600Y342900D03*
D14*
X514540Y508000D02*
X501460Y508000D01*
X501460Y482600D02*
X514540Y482600D01*
X514540Y457200D02*
X501460Y457200D01*
X501460Y431800D02*
X514540Y431800D01*
D15*
X558800Y317500D03*
X584200Y317500D03*
X609600Y317500D03*
D13*
X803847Y571900D02*
X821754Y571900D01*
X821754Y621900D02*
X803847Y621900D01*
X762400Y364554D02*
X762400Y346647D01*
X812400Y346647D02*
X812400Y364554D01*
M02*
